<?xml version="1.0" encoding="utf-8"?>
<!-- Generator: Adobe Illustrator 17.0.0, SVG Export Plug-In . SVG Version: 6.00 Build 0)  -->
<!DOCTYPE svg PUBLIC "-//W3C//DTD SVG 1.1//EN" "http://www.w3.org/Graphics/SVG/1.1/DTD/svg11.dtd">
<svg version="1.1" id="Layer_1" xmlns="http://www.w3.org/2000/svg" xmlns:xlink="http://www.w3.org/1999/xlink" x="0px" y="0px"
	 width="112px" height="112px" viewBox="0 0 112 112" enable-background="new 0 0 112 112" xml:space="preserve">
<g>
	<path fill="#F89B60" d="M91,68.157C91,72.489,87.489,76,83.157,76H29.843C25.511,76,22,72.489,22,68.157V42.843
		C22,38.511,25.511,35,29.843,35h53.314C87.489,35,91,38.511,91,42.843V68.157z M89,43.636C89,39.971,86.029,37,82.363,37H29.637
		C25.971,37,23,39.971,23,43.636v25.727C23,73.029,25.971,76,29.637,76h52.727C86.029,76,89,73.029,89,69.364V43.636z"/>
	<path fill="#F89B60" d="M56,101.086c-24.862,0-45.087-20.226-45.087-45.087c0-24.859,20.225-45.085,45.087-45.085
		c24.861,0,45.087,20.225,45.087,45.085C101.087,80.86,80.861,101.086,56,101.086z M56,12.121
		c-24.197,0-43.881,19.684-43.881,43.878c0,24.196,19.684,43.88,43.881,43.88c24.196,0,43.88-19.684,43.88-43.88
		C99.88,31.805,80.196,12.121,56,12.121z"/>
	<g>
		<path fill="#F89B60" d="M45.384,67.045H30.902v-3.189l6.58-7.607c1.008-1.188,1.714-2.176,2.095-2.932
			c0.361-0.712,0.544-1.396,0.544-2.032c0-0.73-0.191-1.3-0.583-1.741c-0.374-0.42-0.916-0.625-1.656-0.625
			c-0.883,0-1.53,0.266-1.98,0.812c-0.477,0.582-0.711,1.308-0.711,2.218v0.604h-4.36l-0.197-0.672
			c-0.052-1.926,0.595-3.58,1.921-4.917c1.323-1.333,3.116-2.009,5.327-2.009c2.12,0,3.814,0.589,5.033,1.75
			c1.226,1.169,1.848,2.714,1.848,4.593c0,1.266-0.341,2.47-1.013,3.579c-0.63,1.039-1.673,2.438-3.098,4.159l-3.541,4.059h8.274
			V67.045z M32.108,65.839h12.07v-1.537h-8.712l-0.318-0.792l4.584-5.256c1.378-1.664,2.387-3.014,2.986-4.002
			c0.556-0.918,0.839-1.911,0.839-2.954c0-1.558-0.483-2.775-1.475-3.72c-0.986-0.94-2.399-1.417-4.2-1.417
			c-1.905,0-3.367,0.541-4.471,1.653c-0.983,0.991-1.499,2.15-1.566,3.531h2.17c0.095-0.925,0.416-1.725,0.955-2.381
			c0.684-0.831,1.663-1.253,2.912-1.253c1.09,0,1.951,0.346,2.558,1.03c0.589,0.662,0.888,1.518,0.888,2.543
			c0,0.827-0.226,1.695-0.673,2.577c-0.43,0.852-1.17,1.889-2.256,3.172l-6.29,7.272V65.839z"/>
		<path fill="#F89B60" d="M59.708,67.045H55.08v-4.567h-8.588l-0.116-2.87l8.871-14.356h4.46v13.249h2.602v3.978h-2.602V67.045z
			 M56.286,65.839h2.216v-4.567h2.602v-1.565h-2.602V46.458H55.92l-8.323,13.47l0.054,1.343h8.634V65.839z M56.286,59.707h-7.058
			l5.509-8.505l0.486-1.185l1.063,0.177V59.707z M51.447,58.501h3.633v-5.61L51.447,58.501z"/>
		<path fill="#F89B60" d="M81.37,67.045h-4.643v-8.78h-7.998v8.78h-4.643V45.252h4.643v9.049h7.998v-9.049h4.643V67.045z
			 M77.934,65.839h2.229v-19.38h-2.229v9.049H67.523v-9.049h-2.23v19.38h2.23v-8.781h10.411V65.839z"/>
	</g>
</g>
<g>
</g>
<g>
</g>
<g>
</g>
<g>
</g>
<g>
</g>
<g>
</g>
</svg>
