<?xml version="1.0" encoding="utf-8"?>
<!-- Generator: Adobe Illustrator 17.0.0, SVG Export Plug-In . SVG Version: 6.00 Build 0)  -->
<!DOCTYPE svg PUBLIC "-//W3C//DTD SVG 1.1//EN" "http://www.w3.org/Graphics/SVG/1.1/DTD/svg11.dtd">
<svg version="1.1" id="Layer_1" xmlns="http://www.w3.org/2000/svg" xmlns:xlink="http://www.w3.org/1999/xlink" x="0px" y="0px"
	 width="112px" height="112px" viewBox="0 0 112 112" enable-background="new 0 0 112 112" xml:space="preserve">
<g>
	<path fill="#FF9C5E" d="M56,101.086c-24.861,0-45.087-20.226-45.087-45.087c0-24.859,20.226-45.084,45.087-45.084
		c24.861,0,45.087,20.225,45.087,45.084C101.087,80.86,80.861,101.086,56,101.086z M56,12.121c-24.196,0-43.88,19.684-43.88,43.878
		c0,24.196,19.685,43.88,43.88,43.88c24.196,0,43.88-19.684,43.88-43.88C99.88,31.805,80.196,12.121,56,12.121z"/>
	<g>
		<path fill="#FF9C5E" d="M56.103,85.802c-9.157,0-11.08-1.094-11.08-2.012c0-1.154,2.949-1.823,8.768-1.988l0.203-26.477
			L36.555,33.02c-0.142-0.182-0.168-0.201-0.066-0.408c0.101-0.208,0.311-0.113,0.542-0.113h37.843c0.231,0,0.441-0.095,0.542,0.113
			c0.102,0.207,0.075,0.339-0.066,0.521L57.908,55.385l0.084,26.477c6.099,0.136,9.19,0.785,9.19,1.959
			C67.181,85.557,60.241,85.802,56.103,85.802z M46.694,83.792c1.308,0.391,4.675,0.804,9.409,0.804
			c4.717,0,8.075-0.403,9.393-0.788c-1.157-0.334-3.936-0.713-8.116-0.78c-0.329-0.005-0.593-0.273-0.593-0.602l-0.086-27.304
			c0-0.136,0.044-0.143,0.128-0.25L73.636,33.5H38.268l16.807,21.373c0.084,0.107,0.129,0.179,0.128,0.315l-0.21,27.238
			c-0.002,0.327-0.264,0.576-0.589,0.583C50.445,83.096,47.804,83.462,46.694,83.792z"/>
		<path fill="#FF9C5E" d="M55.921,51.954c-0.122,0-0.245-0.036-0.351-0.113c-0.271-0.194-0.333-0.571-0.139-0.842l17.116-23.83
			c0.194-0.271,0.572-0.332,0.842-0.138c0.271,0.195,0.333,0.572,0.138,0.843L56.412,51.703
			C56.294,51.867,56.109,51.954,55.921,51.954z"/>
		<g>
			<circle fill="#FF9C5E" cx="64.416" cy="39.153" r="1.979"/>
			<path fill="#FF9C5E" d="M64.416,41.735c-1.424,0-2.582-1.158-2.582-2.582c0-1.424,1.158-2.582,2.582-2.582
				c1.424,0,2.583,1.158,2.583,2.582C66.999,40.577,65.84,41.735,64.416,41.735z M64.416,37.777c-0.759,0-1.376,0.618-1.376,1.376
				c0,0.759,0.617,1.375,1.376,1.375c0.759,0,1.376-0.617,1.376-1.375C65.792,38.395,65.175,37.777,64.416,37.777z"/>
		</g>
	</g>
</g>
</svg>
