<?xml version="1.0" encoding="utf-8"?>
<!-- Generator: Adobe Illustrator 17.0.0, SVG Export Plug-In . SVG Version: 6.00 Build 0)  -->
<!DOCTYPE svg PUBLIC "-//W3C//DTD SVG 1.1//EN" "http://www.w3.org/Graphics/SVG/1.1/DTD/svg11.dtd">
<svg version="1.1" id="Layer_1" xmlns="http://www.w3.org/2000/svg" xmlns:xlink="http://www.w3.org/1999/xlink" x="0px" y="0px"
	 width="112px" height="112px" viewBox="0 0 112 112" enable-background="new 0 0 112 112" xml:space="preserve">
<g>
	<path fill="#FF9C5E" d="M56,101.086c-24.861,0-45.087-20.226-45.087-45.087c0-24.859,20.226-45.084,45.087-45.084
		c24.861,0,45.087,20.225,45.087,45.084C101.087,80.86,80.861,101.086,56,101.086z M56,12.121c-24.196,0-43.88,19.684-43.88,43.878
		c0,24.196,19.684,43.88,43.88,43.88s43.88-19.684,43.88-43.88C99.88,31.805,80.196,12.121,56,12.121z"/>
	<g>
		<path fill="#FF9C5E" d="M70.338,88.5c-0.002,0-0.002,0-0.003,0l-29.169-0.432c-0.314-0.002-0.575-0.394-0.598-0.707l-3.125-41.687
			l-1.181-0.043c-0.333-0.002-0.602-0.292-0.6-0.625l0.016-3.492c0.001-0.16,0.065-0.52,0.179-0.633
			c0.112-0.112,0.265-0.381,0.424-0.381c0.001,0,0.002,0,0.003,0l39.032,0.378c0.16,0.001,0.313,0.165,0.426,0.279
			c0.113,0.114,0.176,0.318,0.175,0.478l-0.017,3.872c-0.002,0.332-0.271,0.992-0.603,0.992c-0.001,0-0.002,0-0.002,0l-0.818-0.368
			l-3.538,41.699C70.913,88.143,70.651,88.5,70.338,88.5z M41.729,86.565l28.055,0.127l3.538-41.111
			c0.027-0.312,0.287-0.081,0.601-0.081c0,0,0.001,0,0.002,0l0.771-0.468l0.011-2.512l-37.826-0.289l-0.011,2.218l1.135-0.025
			c0.315,0.002,0.575,0.23,0.598,0.543L41.729,86.565z"/>
		<path fill="#FF9C5E" d="M73.379,42.5c-0.001,0-0.002,0-0.003,0l-34.909-0.269c-0.196-0.001-0.38-0.153-0.492-0.314
			c-0.112-0.162-0.139-0.395-0.072-0.58c1.888-5.16,5.769-9.347,10.648-11.462c0.076-0.033,0.171-0.051,0.243-0.057l14.378,0.062
			c0.083,0,0.165,0.016,0.242,0.05c4.858,2.157,8.698,6.364,10.534,11.543c0.066,0.185,0.037,0.501-0.076,0.661
			C73.758,42.295,73.574,42.5,73.379,42.5z M39.352,40.918l33.151,0.149c-1.809-4.456-5.216-8.06-9.465-9.984L48.915,31.02
			C44.648,32.906,41.206,36.479,39.352,40.918z"/>
		<path fill="#FF9C5E" d="M57.395,85.707c-0.012,0-0.023-0.001-0.034-0.002l-3.641-0.203c-0.161-0.009-0.311-0.082-0.417-0.201
			c-0.107-0.12-0.161-0.279-0.152-0.438l4.072-66.591c0.02-0.331,0.298-0.582,0.636-0.566l3.641,0.203
			c0.16,0.009,0.31,0.082,0.417,0.201c0.107,0.12,0.161,0.277,0.152,0.438L57.996,85.14C57.976,85.46,57.711,85.707,57.395,85.707z
			 M54.392,84.331l2.437,0.137l3.998-65.389l-2.436-0.136L54.392,84.331z"/>
		<path fill="#FF9C5E" d="M49.604,86.5c-0.001,0-0.011,0-0.011,0c-0.654,0-1.267-0.235-1.729-0.68
			c-0.47-0.454-0.726-1.048-0.723-1.689c0.007-1.304,1.112-2.363,2.462-2.363c1.369,0.008,2.468,1.066,2.463,2.376
			C52.059,85.451,50.954,86.5,49.604,86.5z M49.608,82.979c-0.694,0-1.257,0.523-1.261,1.166c-0.002,0.308,0.124,0.599,0.354,0.821
			c0.238,0.229,0.004,0.355,0.345,0.357L48.5,85.926v-0.603c1,0,1.804-0.523,1.807-1.167C50.311,83.511,50.301,82.982,49.608,82.979
			z"/>
		<path fill="#FF9C5E" d="M63.839,85.5c-0.001,0-0.012,0-0.013,0c-0.652,0-1.266-0.574-1.727-1.019
			c-0.469-0.451-0.725-1.215-0.723-1.856c0.007-1.305,1.112-2.449,2.464-2.449c0.662,0.003,1.275,0.209,1.737,0.655
			c0.469,0.452,0.726,1.358,0.723,1.999C66.294,84.134,65.19,85.5,63.839,85.5z M63.844,81.301c-0.694,0-1.258,0.523-1.261,1.166
			c-0.002,0.309,0.124,0.6,0.354,0.821c0.237,0.228,0.385,0.355,0.726,0.357L63.5,84.249v-0.603c1,0,1.42-0.524,1.424-1.167
			c0.001-0.307-0.039-0.599-0.269-0.821C64.418,81.43,64.185,81.303,63.844,81.301z"/>
		<path fill="#FF9C5E" d="M44.524,81.5c0,0-0.011,0-0.012,0c-0.653,0-1.267-0.544-1.729-0.99c-0.468-0.454-0.725-1.205-0.721-1.847
			c0.007-1.307,1.11-2.445,2.461-2.445c0.665,0.003,1.279,0.214,1.741,0.661c0.469,0.453,0.725,1.332,0.722,1.974
			C46.979,80.16,45.875,81.5,44.524,81.5z M44.53,77.351c-0.696,0-1.259,0.525-1.262,1.171c-0.002,0.311,0.124,0.604,0.354,0.826
			c0.237,0.229,0.543,0.357,0.883,0.358L44.5,80.309v-0.603c0,0,1.264-0.526,1.267-1.171c0.002-0.31-0.118-0.603-0.348-0.825
			C45.182,77.48,44.87,77.352,44.53,77.351z"/>
		<path fill="#FF9C5E" d="M44.561,73.5c-0.001,0-0.01,0-0.011,0c-1.357,0-2.457-1.219-2.452-2.532
			c0.008-1.309,1.113-2.442,2.463-2.442c0.664,0.002,1.278,0.216,1.74,0.662c0.469,0.453,0.725,1.177,0.722,1.818
			C47.017,72.315,45.912,73.5,44.561,73.5z M44.567,69.664c-0.694,0-1.258,0.526-1.262,1.172c-0.003,0.648,0.528,1.179,1.22,1.182
			L44.5,72.622v-0.604c0,0,1.283-0.526,1.287-1.173c0.002-0.309-0.108-0.601-0.339-0.824C45.211,69.793,44.908,69.666,44.567,69.664
			z"/>
		<path fill="#FF9C5E" d="M49.642,78.5c-0.002,0-0.01,0-0.011,0c-1.358,0-2.457-1.071-2.451-2.382
			c0.007-1.305,1.111-2.362,2.462-2.362c1.37,0.007,2.469,1.072,2.464,2.382C52.098,77.444,50.993,78.5,49.642,78.5z M49.649,74.967
			c-0.696,0-1.259,0.523-1.262,1.166c-0.003,0.646-0.013,1.175,0.679,1.178L48.5,77.914v-0.603c1,0,1.824-0.523,1.828-1.168
			C50.331,75.499,50.341,74.97,49.649,74.967z"/>
		<path fill="#FF9C5E" d="M61.315,78.5c-0.002,0-0.01,0-0.011,0c-0.654,0-1.268-0.215-1.729-0.659
			c-0.47-0.453-0.725-1.037-0.723-1.678c0.006-1.305,1.112-2.359,2.464-2.359c0.663,0.003,1.276,0.254,1.738,0.7
			c0.47,0.453,0.727,1.022,0.723,1.663C63.771,77.471,62.666,78.5,61.315,78.5z M61.321,75.019c-0.694,0-1.259,0.524-1.262,1.167
			c-0.002,0.308,0.125,0.6,0.354,0.82c0.237,0.229,0.148,0.356,0.489,0.357L60.5,77.967v-0.604c1,0,1.659-0.523,1.663-1.166
			c0.003-0.307,0.082-0.599-0.148-0.821C61.777,75.147,61.662,75.02,61.321,75.019z"/>
		<path fill="#FF9C5E" d="M67.534,75.5c-0.001,0-0.012,0-0.012,0c-0.652,0-1.265-0.442-1.727-0.887
			c-0.469-0.452-0.725-1.151-0.722-1.792c0.007-1.306,1.11-2.416,2.462-2.416c0.664,0.002,1.277,0.225,1.739,0.671
			c0.469,0.453,0.725,1.235,0.723,1.876C69.99,74.258,68.886,75.5,67.534,75.5z M67.54,71.563c-0.695,0-1.258,0.524-1.261,1.167
			c-0.002,0.308,0.124,0.6,0.353,0.821c0.237,0.228,0.037,0.355,0.377,0.356L66.5,74.511v-0.604c1,0,1.769-0.523,1.772-1.166
			c0.002-0.307,0.135-0.599-0.095-0.821C67.94,71.692,67.881,71.565,67.54,71.563z"/>
	</g>
</g>
</svg>
