<?xml version="1.0" encoding="utf-8"?>
<!-- Generator: Adobe Illustrator 17.0.0, SVG Export Plug-In . SVG Version: 6.00 Build 0)  -->
<!DOCTYPE svg PUBLIC "-//W3C//DTD SVG 1.1//EN" "http://www.w3.org/Graphics/SVG/1.1/DTD/svg11.dtd">
<svg version="1.1" id="Layer_1" xmlns="http://www.w3.org/2000/svg" xmlns:xlink="http://www.w3.org/1999/xlink" x="0px" y="0px"
	 width="112px" height="112px" viewBox="0 0 112 112" enable-background="new 0 0 112 112" xml:space="preserve">
<g>
	<path fill="#F89B60" d="M56,101.086c-24.861,0-45.087-20.225-45.087-45.087c0-24.859,20.226-45.084,45.087-45.084
		c24.861,0,45.087,20.225,45.087,45.084C101.087,80.86,80.862,101.086,56,101.086z M56,12.121c-24.196,0-43.88,19.683-43.88,43.878
		c0,24.196,19.685,43.88,43.88,43.88c24.195,0,43.88-19.685,43.88-43.88C99.88,31.804,80.196,12.121,56,12.121z"/>
	<path fill="#F89B60" d="M77.079,83.148H34.922c-0.843,0-1.529-0.807-1.529-1.8c0-0.992,0.685-1.8,1.529-1.8h42.157
		c0.856,0,1.527,0.791,1.527,1.8C78.606,82.356,77.935,83.148,77.079,83.148z M34.922,80.753c-0.128,0-0.322,0.237-0.322,0.594
		c0,0.357,0.194,0.594,0.322,0.594h42.157c0.127,0,0.32-0.237,0.32-0.594c0-0.357-0.193-0.594-0.32-0.594H34.922z"/>
	<path fill="#F89B60" d="M64.592,77.896H47.387c-5.604,0-10.161-4.898-10.161-10.92V47.317h37.548v2.507
		c4.182,0.668,7.271,4.047,7.271,8.062c0,4.015-3.089,7.396-7.271,8.064v1.628h-0.034C74.447,73.321,70.008,77.896,64.592,77.896z
		 M38.432,48.524v18.452c0,5.356,4.017,9.714,8.955,9.714h17.206c4.938,0,8.956-4.357,8.956-9.714l0.019-2.101l0.543-0.054
		c3.836-0.388,6.728-3.369,6.728-6.934c0-3.564-2.893-6.544-6.728-6.932L73.567,50.9v-2.377H38.432z M73.567,63.619V52.155
		l0.659,0.062c3.123,0.292,5.48,2.729,5.48,5.67c0,2.942-2.356,5.38-5.48,5.671L73.567,63.619z M74.774,53.522v8.731
		c2.165-0.479,3.726-2.26,3.726-4.366C78.499,55.782,76.939,54.001,74.774,53.522z"/>
	<path fill="#F89B60" d="M63.203,45.723c-0.179,0-0.632-0.027-0.959-0.271c-2.116-1.564-2.809-4.938-1.482-7.219
		c0.481-0.826,1.094-1.562,1.687-2.274l0.043-0.052c1.601-1.926,1.606-2.589,0.036-4.429c-0.55-0.645-1.087-1.531-0.357-2.668
		l0.178-0.277h1.564l0.18,0.237c0.173,0.226,0.351,0.448,0.529,0.668c0.408,0.507,0.83,1.031,1.184,1.605
		c1.16,1.886,1.074,3.855-0.249,5.694c-0.324,0.45-0.678,0.876-1.02,1.288c-0.251,0.303-0.502,0.606-0.741,0.918
		c-1.076,1.405-1.093,2.282-0.073,3.752c0.055,0.08,0.125,0.154,0.195,0.23c0.187,0.207,0.421,0.466,0.505,0.818
		c0.104,0.436,0.154,1.282-0.319,1.698C63.841,45.674,63.469,45.723,63.203,45.723z M63.048,29.74
		c-0.079,0.26,0.018,0.51,0.398,0.955c1.943,2.278,1.937,3.62-0.027,5.983l-0.044,0.052c-0.561,0.674-1.141,1.371-1.571,2.109
		c-1.019,1.752-0.467,4.442,1.158,5.643c0.015,0.006,0.19,0.041,0.313,0.03c0.017-0.12,0.014-0.32-0.026-0.491
		c-0.017-0.057-0.148-0.202-0.226-0.288c-0.103-0.113-0.205-0.229-0.29-0.35c-1.32-1.901-1.29-3.351,0.105-5.175
		c0.248-0.325,0.51-0.64,0.77-0.954c0.344-0.415,0.67-0.807,0.969-1.223c1.03-1.433,1.098-2.898,0.201-4.356
		c-0.314-0.51-0.694-0.982-1.096-1.482c-0.121-0.152-0.243-0.302-0.362-0.455H63.048z"/>
	<path fill="#F89B60" d="M55.844,45.742c-0.197,0-0.573-0.03-0.871-0.232c-2.169-1.468-2.912-5.03-1.528-7.33
		c0.478-0.794,1.096-1.534,1.592-2.129c1.712-2.056,1.714-2.716,0.015-4.702c-0.289-0.339-1.171-1.37-0.096-2.607l0.18-0.209h1.512
		l0.574,0.746c0.273,0.351,0.545,0.702,0.805,1.061c1.712,2.377,1.677,4.479-0.113,6.818c-0.345,0.452-0.714,0.888-1.071,1.311
		l-0.207,0.245c-1.328,1.583-1.354,2.479-0.116,4.172c0.046,0.063,0.1,0.123,0.155,0.184c0.188,0.212,0.421,0.477,0.475,0.844
		c0.059,0.402,0.032,1.183-0.436,1.566C56.452,45.696,56.096,45.742,55.844,45.742z M55.71,29.74
		c-0.126,0.218-0.086,0.42,0.26,0.825c2.094,2.45,2.093,3.738-0.005,6.258c-0.495,0.594-1.055,1.266-1.486,1.98
		c-1.04,1.73-0.45,4.611,1.172,5.708c0.013,0.004,0.185,0.031,0.281,0.019c0.027-0.099,0.047-0.279,0.023-0.443
		c-0.014-0.024-0.118-0.141-0.186-0.219c-0.08-0.089-0.159-0.18-0.225-0.272c-1.575-2.154-1.532-3.635,0.167-5.659l0.21-0.248
		c0.347-0.411,0.706-0.837,1.034-1.265c1.452-1.897,1.479-3.456,0.093-5.38c-0.25-0.348-0.514-0.686-0.778-1.025l-0.217-0.28H55.71z
		"/>
	<path fill="#F89B60" d="M48.526,45.709c-0.188,0-0.661-0.028-0.996-0.292c-2.334-1.832-2.848-5.202-1.17-7.67
		c0.33-0.485,0.702-0.933,1.063-1.365l0.348-0.42c1.623-1.99,1.614-2.726-0.054-4.632c-0.828-0.946-0.825-1.831,0.011-2.63
		l0.175-0.167h1.236l0.181,0.228c0.182,0.229,0.372,0.454,0.561,0.677c0.445,0.525,0.904,1.068,1.273,1.68
		c1.105,1.838,1.03,3.737-0.216,5.492c-0.357,0.503-0.746,0.982-1.122,1.446c-0.235,0.29-0.471,0.58-0.698,0.875
		c-1.105,1.436-1.134,2.155-0.145,3.662c0.062,0.096,0.143,0.186,0.22,0.277c0.199,0.23,0.423,0.49,0.521,0.847
		c0.127,0.459,0.15,1.296-0.309,1.713C49.147,45.66,48.785,45.709,48.526,45.709z M48.4,29.74c-0.159,0.197-0.146,0.372,0.225,0.796
		c2.059,2.352,2.077,3.741,0.08,6.189l-0.355,0.429c-0.357,0.43-0.696,0.835-0.992,1.271c-1.323,1.947-0.92,4.601,0.918,6.044
		c0.01,0.003,0.169,0.042,0.296,0.032c0.019-0.12,0.018-0.317-0.023-0.464c-0.026-0.095-0.156-0.245-0.27-0.377
		c-0.113-0.13-0.225-0.264-0.317-0.404c-1.27-1.939-1.221-3.216,0.199-5.06c0.233-0.304,0.475-0.602,0.717-0.9
		c0.364-0.448,0.741-0.912,1.075-1.384c0.96-1.353,1.016-2.756,0.166-4.171c-0.319-0.529-0.727-1.012-1.159-1.522
		c-0.135-0.159-0.27-0.319-0.402-0.48H48.4z"/>
</g>
<g>
</g>
<g>
</g>
<g>
</g>
<g>
</g>
<g>
</g>
<g>
</g>
</svg>
