<?xml version="1.0" encoding="utf-8"?>
<!-- Generator: Adobe Illustrator 17.0.0, SVG Export Plug-In . SVG Version: 6.00 Build 0)  -->
<!DOCTYPE svg PUBLIC "-//W3C//DTD SVG 1.1//EN" "http://www.w3.org/Graphics/SVG/1.1/DTD/svg11.dtd">
<svg version="1.1" id="Layer_1" xmlns="http://www.w3.org/2000/svg" xmlns:xlink="http://www.w3.org/1999/xlink" x="0px" y="0px"
	 width="112px" height="112px" viewBox="0 0 112 112" enable-background="new 0 0 112 112" xml:space="preserve">
<path fill="#FF9C5E" d="M56.001,101.086c-24.862,0-45.088-20.227-45.088-45.087c0-24.861,20.226-45.086,45.088-45.086
	c24.861,0,45.086,20.225,45.086,45.086C101.087,80.86,80.862,101.086,56.001,101.086z M56.001,12.12
	C31.805,12.12,12.12,31.804,12.12,56c0,24.196,19.686,43.88,43.881,43.88C80.196,99.88,99.88,80.196,99.88,56
	C99.88,31.804,80.196,12.12,56.001,12.12z"/>
<g>
	<path fill="#FF9C5E" d="M73.576,61.828l-0.874-0.831c5.952-6.258,10.04-12.99,10.415-17.147c0.29-3.214-0.719-6.342-2.768-8.583
		c-1.92-2.102-4.538-3.212-7.572-3.212c-6.397,0-8.905,4.526-10.736,7.83l-0.528,0.953l-0.632-1.142
		c-1.887-3.404-4.235-7.641-10.63-7.641c-4.907,0-8.851,3.187-10.049,8.121l-1.172-0.284c1.333-5.494,5.738-9.043,11.221-9.043
		c6.604,0,9.356,4.125,11.263,7.507c1.878-3.294,4.795-7.507,11.263-7.507c3.382,0,6.308,1.246,8.462,3.604
		c2.277,2.489,3.398,5.955,3.079,9.505C83.835,49.318,78.229,56.935,73.576,61.828z"/>
	<path fill="#FF9C5E" d="M50.484,81.151c-5.988,0-22.05-17.083-22.808-26.034c-0.304-3.589,0.86-7.104,3.193-9.644
		c2.161-2.352,5.049-3.594,8.352-3.594c6.604,0,9.357,4.128,11.264,7.509c1.879-3.295,4.797-7.509,11.263-7.509
		c3.382,0,6.308,1.246,8.462,3.602c2.276,2.491,3.398,5.955,3.079,9.505c-0.37,4.116-3.898,10.27-9.436,16.457
		C59.844,75.921,53.937,81.151,50.484,81.151z M39.221,43.086c-2.956,0-5.537,1.107-7.463,3.204c-2.075,2.259-3.151,5.52-2.88,8.726
		c0.687,8.112,16.313,24.929,21.606,24.929c4.943,0,20.797-16.112,21.602-25.066c0.29-3.215-0.719-6.342-2.766-8.583
		c-1.92-2.1-4.537-3.209-7.572-3.209c-6.394,0-8.904,4.526-10.736,7.83l-0.527,0.951l-0.637-1.146
		C47.96,47.319,45.611,43.086,39.221,43.086z"/>
</g>
</svg>
