<?xml version="1.0" encoding="utf-8"?>
<!-- Generator: Adobe Illustrator 17.0.0, SVG Export Plug-In . SVG Version: 6.00 Build 0)  -->
<!DOCTYPE svg PUBLIC "-//W3C//DTD SVG 1.1//EN" "http://www.w3.org/Graphics/SVG/1.1/DTD/svg11.dtd">
<svg version="1.1" id="Layer_1" xmlns="http://www.w3.org/2000/svg" xmlns:xlink="http://www.w3.org/1999/xlink" x="0px" y="0px"
	 width="112px" height="112px" viewBox="0 0 112 112" enable-background="new 0 0 112 112" xml:space="preserve">
<path fill="#F89B60" d="M56,101.086c-24.861,0-45.087-20.227-45.087-45.087c0-24.861,20.227-45.086,45.087-45.086
	c24.862,0,45.087,20.225,45.087,45.086C101.087,80.86,80.862,101.086,56,101.086z M56,12.12C31.804,12.12,12.12,31.804,12.12,56
	S31.804,99.879,56,99.879c24.196,0,43.88-19.684,43.88-43.88S80.197,12.12,56,12.12z"/>
<g>
	<path fill="#F89B60" d="M31.835,74.636V57.912l24.055-20.548l24.276,10.071v17.317L31.835,74.636z M33.041,58.468v14.69
		l45.918-9.391V48.24l-22.848-9.479L33.041,58.468z"/>
	<path fill="#F89B60" d="M32.467,69.088l-0.057-1.206c0.271-0.013,0.536-0.051,0.788-0.111c1.006-0.244,1.886-0.852,2.477-1.71
		l0.307-0.445l0.476,0.256c0.917,0.495,1.978,0.633,2.985,0.391c1.005-0.244,1.885-0.851,2.478-1.71l0.307-0.444l0.477,0.256
		c0.916,0.494,1.977,0.634,2.984,0.39c1.006-0.244,1.886-0.851,2.477-1.71l0.308-0.446l0.476,0.258
		c0.92,0.496,1.978,0.635,2.984,0.391c1.006-0.244,1.887-0.851,2.48-1.711l0.306-0.444l0.477,0.256
		c0.919,0.496,1.979,0.634,2.984,0.391c1.008-0.244,1.888-0.851,2.477-1.709l0.307-0.448l0.477,0.258
		c0.917,0.495,1.977,0.634,2.984,0.39c1.007-0.242,1.887-0.848,2.478-1.709l0.307-0.445l0.477,0.257
		c0.919,0.495,1.979,0.634,2.984,0.39c1.007-0.243,1.887-0.849,2.478-1.709l0.308-0.446l0.477,0.258
		c0.916,0.495,1.975,0.633,2.983,0.389c0.853-0.206,1.61-0.669,2.19-1.34l0.913,0.788c-0.745,0.864-1.721,1.46-2.82,1.724
		c-1.127,0.273-2.306,0.174-3.37-0.275c-0.743,0.885-1.748,1.511-2.874,1.782c-1.128,0.272-2.306,0.175-3.372-0.275
		c-0.743,0.887-1.747,1.513-2.875,1.782c-1.126,0.273-2.305,0.176-3.37-0.275c-0.741,0.886-1.745,1.513-2.874,1.785
		c-1.125,0.275-2.305,0.175-3.373-0.277c-0.743,0.886-1.746,1.512-2.873,1.786c-1.127,0.273-2.306,0.173-3.372-0.277
		c-0.742,0.885-1.746,1.511-2.873,1.785c-1.129,0.272-2.308,0.172-3.373-0.277c-0.743,0.886-1.747,1.512-2.874,1.784
		c-1.128,0.273-2.307,0.173-3.371-0.277c-0.742,0.885-1.746,1.512-2.874,1.786C33.154,69.023,32.813,69.071,32.467,69.088z"/>
	
		<rect x="55.397" y="28.89" transform="matrix(0.215 0.9766 -0.9766 0.215 95.7343 -13.0745)" fill="#F89B60" width="1.206" height="48.248"/>
</g>
<g>
</g>
<g>
</g>
<g>
</g>
<g>
</g>
<g>
</g>
<g>
</g>
</svg>
