<?xml version="1.0" encoding="utf-8"?>
<!-- Generator: Adobe Illustrator 17.0.0, SVG Export Plug-In . SVG Version: 6.00 Build 0)  -->
<!DOCTYPE svg PUBLIC "-//W3C//DTD SVG 1.1//EN" "http://www.w3.org/Graphics/SVG/1.1/DTD/svg11.dtd">
<svg version="1.1" id="Layer_1" xmlns="http://www.w3.org/2000/svg" xmlns:xlink="http://www.w3.org/1999/xlink" x="0px" y="0px"
	 width="112px" height="112px" viewBox="0 0 112 112" enable-background="new 0 0 112 112" xml:space="preserve">
<g>
	<g>
		<path fill="#F89B60" d="M46.445,82.29c-2.042,0-3.703-1.666-3.703-3.714V55.222c0-0.087,0.004-0.174,0.01-0.262
			c-2.849-1.408-4.665-4.314-4.665-7.526V31.868c0-1.19,0.966-2.158,2.151-2.158c1.186,0,2.151,0.968,2.151,2.158v15.567
			c0,0.529,0.427,0.958,0.95,0.958c0.526,0,0.954-0.43,0.954-0.958V31.868c0-1.19,0.965-2.158,2.15-2.158
			c1.186,0,2.151,0.968,2.151,2.158v15.567c0,0.529,0.427,0.958,0.954,0.958s0.954-0.43,0.954-0.958V31.868
			c0-1.19,0.965-2.158,2.15-2.158c1.186,0,2.15,0.968,2.15,2.158v15.567c0,3.213-1.816,6.119-4.665,7.526
			c0.006,0.086,0.009,0.174,0.009,0.261v23.354C50.148,80.624,48.486,82.29,46.445,82.29z M40.238,30.912
			c-0.526,0-0.954,0.429-0.954,0.956v15.567c0,2.885,1.71,5.481,4.354,6.613l0.448,0.191l-0.096,0.479
			c-0.034,0.17-0.051,0.341-0.051,0.503v23.354c0,1.385,1.124,2.513,2.506,2.513c1.382,0,2.506-1.127,2.506-2.513V55.222
			c0-0.17-0.016-0.34-0.049-0.503l-0.096-0.478l0.448-0.192c2.645-1.132,4.353-3.728,4.353-6.613V31.868
			c0-0.527-0.427-0.956-0.953-0.956S51.7,31.341,51.7,31.868v15.567c0,1.191-0.966,2.159-2.151,2.159
			c-1.186,0-2.15-0.969-2.15-2.159V31.868c0-0.527-0.427-0.956-0.954-0.956c-0.526,0-0.954,0.429-0.954,0.956v15.567
			c0,1.191-0.965,2.159-2.151,2.159c-1.184,0-2.148-0.969-2.148-2.159V31.868C41.192,31.341,40.764,30.912,40.238,30.912z"/>
		<path fill="#F89B60" d="M70.474,81.974c-1.897,0-3.439-1.462-3.439-3.258V59.219c-1.717-0.742-2.842-2.363-2.842-4.157
			l0.002-15.483c-0.048-2.611,0.88-5.07,2.626-6.942c1.689-1.811,3.958-2.85,6.388-2.926l0.185-0.006l0.502,0.322l0.018,0.412
			v48.276C73.914,80.511,72.37,81.974,70.474,81.974z M65.39,39.915v15.146c0,1.414,0.978,2.69,2.431,3.173l0.41,0.137v20.343
			c0,1.134,1.006,2.058,2.242,2.058c1.237,0,2.243-0.923,2.243-2.058V30.946c-1.909,0.188-3.675,1.067-5.022,2.511
			c-1.566,1.679-2.382,3.902-2.298,6.258l0.006,0.177L65.39,39.915z"/>
	</g>
	<path fill="#F89B60" d="M56,100.886c-24.671,0-44.743-20.136-44.743-44.886c0-24.749,20.072-44.885,44.743-44.885
		s44.743,20.136,44.743,44.885C100.743,80.75,80.671,100.886,56,100.886z M56,12.316c-24.012,0-43.546,19.595-43.546,43.683
		S31.988,99.684,56,99.684c24.011,0,43.546-19.597,43.546-43.685S80.011,12.316,56,12.316z"/>
</g>
</svg>
