<?xml version="1.0" encoding="utf-8"?>
<!-- Generator: Adobe Illustrator 17.0.0, SVG Export Plug-In . SVG Version: 6.00 Build 0)  -->
<!DOCTYPE svg PUBLIC "-//W3C//DTD SVG 1.1//EN" "http://www.w3.org/Graphics/SVG/1.1/DTD/svg11.dtd">
<svg version="1.1" id="Layer_1" xmlns="http://www.w3.org/2000/svg" xmlns:xlink="http://www.w3.org/1999/xlink" x="0px" y="0px"
	 width="112px" height="112px" viewBox="0 0 112 112" enable-background="new 0 0 112 112" xml:space="preserve">
<g>
	<path fill="#FF9C5E" d="M56,101.086c-24.861,0-45.087-20.227-45.087-45.087c0-24.859,20.226-45.084,45.087-45.084
		c24.861,0,45.087,20.225,45.087,45.084C101.087,80.859,80.861,101.086,56,101.086z M56,12.121c-24.196,0-43.88,19.683-43.88,43.878
		c0,24.196,19.684,43.88,43.88,43.88c24.196,0,43.88-19.684,43.88-43.88C99.881,31.803,80.196,12.121,56,12.121z"/>
	<g>
		<path fill="#FF9C5E" d="M38.551,55.854l-0.3-0.173c-2.767-1.588-5.066-3.874-6.648-6.615c-1.712-2.966-2.884-5.444-3.427-8.622
			l-0.062-0.37l0.93-0.651l0.356-0.133c2.913-1.088,5.923-2.213,9.123-2.213c3.166,0,6.298,0.848,9.057,2.449l0.3,0.174l0.001,0.346
			c0.012,6.007,3.239,11.598,8.422,14.59l0,0l-0.603,1.045c0-0.001,0-0.001-0.001-0.001c-2.556-1.475-5.459-2.255-8.395-2.255
			c-2.958,0-5.88,0.78-8.452,2.255L38.551,55.854z M29.431,40.608c0.539,2.829,1.638,5.121,3.216,7.855
			c1.42,2.459,3.459,4.527,5.911,5.999c4.073-2.234,8.983-2.827,13.444-1.615c-3.269-3.262-5.223-7.722-5.325-12.445
			c-2.502-1.386-5.313-2.118-8.155-2.118c-2.981,0-5.889,1.086-8.7,2.137l-0.279,0.103L29.431,40.608z"/>
		<path fill="#FF9C5E" d="M38.522,73.239L38.522,73.239c-3.432,0-6.164-0.225-9.179-1.339l-0.351-0.13l-0.112-1.052l0.079-0.473
			c0.514-3.06,1.046-6.224,2.644-8.99c1.583-2.739,3.881-5.028,6.647-6.619l0.3-0.173l0.3,0.172
			c2.571,1.477,5.494,2.258,8.452,2.258c0,0,0,0,0.001,0c2.935,0,5.838-0.78,8.394-2.255l0.603,1.045
			c-5.181,2.991-8.409,8.581-8.425,14.591l-0.001,0.346l-0.299,0.174C44.819,72.393,41.688,73.239,38.522,73.239z M30.112,70.893
			c2.713,0.944,5.248,1.139,8.41,1.14c2.841,0,5.651-0.73,8.153-2.114c0.104-4.727,2.059-9.185,5.328-12.448
			c-1.528,0.416-3.11,0.629-4.699,0.629h-0.001c-3.052,0-6.067-0.776-8.745-2.244c-2.451,1.475-4.489,3.544-5.91,6.003
			c-1.489,2.577-2.002,5.631-2.498,8.585l-0.053,0.311L30.112,70.893z"/>
		<path fill="#FF9C5E" d="M56.88,86.853l-1.03-0.482l-0.28-0.233c-2.403-1.98-4.888-4.028-6.491-6.804
			c-1.582-2.742-2.415-5.877-2.407-9.065l0.001-0.346l0.299-0.174c5.198-3.015,8.426-8.605,8.426-14.59h1.207
			c0,5.984,3.227,11.574,8.422,14.59l0.299,0.174l0.002,0.346c0.007,3.186-0.825,6.32-2.407,9.065
			c-1.715,2.969-3.275,5.223-5.751,7.279L56.88,86.853z M56.554,85.388l0.128,0.057c2.175-1.88,3.611-3.977,5.192-6.714
			c1.419-2.461,2.192-5.262,2.243-8.118C60.074,68.16,57.189,64.232,56,59.764c-1.189,4.468-4.076,8.395-8.121,10.849
			c0.05,2.858,0.823,5.657,2.243,8.117c1.494,2.588,3.893,4.565,6.214,6.477L56.554,85.388z"/>
		<path fill="#FF9C5E" d="M73.475,73.239h-0.006c-3.162,0-6.291-0.845-9.05-2.445l-0.299-0.174l-0.001-0.346
			c-0.014-6.009-3.24-11.6-8.419-14.591l-0.001-0.001l0.603-1.044l0,0c2.557,1.477,5.461,2.256,8.395,2.256
			c2.957,0,5.88-0.78,8.451-2.256l0.3-0.172l0.3,0.172c2.763,1.585,5.06,3.873,6.644,6.617c1.715,2.967,2.886,5.444,3.43,8.62
			l0.063,0.369l-0.93,0.652l-0.348,0.129C79.693,72.114,76.678,73.239,73.475,73.239z M65.321,69.918
			c2.502,1.384,5.311,2.114,8.148,2.114v0.604l0.006-0.604c2.985,0,5.895-1.086,8.71-2.138l0.27-0.1l0.112-0.081
			c-0.541-2.827-1.639-5.12-3.219-7.855c-1.421-2.462-3.458-4.532-5.907-6.002c-4.075,2.235-8.984,2.827-13.444,1.616
			C63.263,60.734,65.218,65.193,65.321,69.918z"/>
		<path fill="#FF9C5E" d="M55.397,55.16c-0.001-5.982-3.228-11.573-8.423-14.588l-0.299-0.173l-0.001-0.346
			c-0.01-3.184,0.823-6.318,2.408-9.067c1.716-2.97,3.276-5.225,5.75-7.28l0.288-0.238l1.031,0.481l0.305,0.25
			c2.393,1.977,4.868,4.02,6.466,6.788c1.584,2.747,2.416,5.88,2.406,9.065l-0.001,0.346l-0.3,0.173
			c-5.195,3.015-8.422,8.605-8.422,14.588H55.397z M47.882,39.707c4.043,2.454,6.928,6.382,8.118,10.85
			c1.188-4.468,4.073-8.397,8.117-10.85c-0.048-2.854-0.821-5.653-2.243-8.117c-1.488-2.579-3.878-4.552-6.189-6.46l-0.241-0.199
			l-0.128-0.056c-2.174,1.878-3.61,3.975-5.191,6.713C48.703,34.054,47.93,36.855,47.882,39.707z"/>
		<path fill="#FF9C5E" d="M73.448,55.857l-0.3-0.173c-2.572-1.476-5.495-2.258-8.453-2.258c-2.934,0-5.835,0.78-8.389,2.255
			c-0.001,0-0.002,0.001-0.004,0.001l0,0l-0.603-1.044c5.18-2.993,8.407-8.583,8.421-14.59l0.001-0.346l0.299-0.174
			c2.759-1.602,5.888-2.448,9.045-2.448c3.44,0.002,6.174,0.227,9.19,1.342l0.35,0.13l0.114,1.051l-0.084,0.49
			c-0.516,3.055-1.048,6.213-2.643,8.974c-1.58,2.737-3.877,5.026-6.645,6.617L73.448,55.857z M64.695,52.22
			c3.051,0,6.068,0.775,8.746,2.246c2.452-1.477,4.489-3.547,5.907-6.002c1.487-2.573,2.002-5.623,2.499-8.572l0.054-0.325
			l-0.014-0.138c-2.719-0.948-5.168-1.141-8.415-1.141c-2.84,0-5.647,0.73-8.15,2.116c-0.103,4.723-2.058,9.182-5.326,12.445
			C61.524,52.433,63.104,52.22,64.695,52.22z"/>
	</g>
</g>
</svg>
