<?xml version="1.0" encoding="utf-8"?>
<!-- Generator: Adobe Illustrator 17.0.0, SVG Export Plug-In . SVG Version: 6.00 Build 0)  -->
<!DOCTYPE svg PUBLIC "-//W3C//DTD SVG 1.1//EN" "http://www.w3.org/Graphics/SVG/1.1/DTD/svg11.dtd">
<svg version="1.1" id="Layer_1" xmlns="http://www.w3.org/2000/svg" xmlns:xlink="http://www.w3.org/1999/xlink" x="0px" y="0px"
	 width="112px" height="112px" viewBox="0 0 112 112" enable-background="new 0 0 112 112" xml:space="preserve">
<g>
	<g>
		<path fill="#F89B60" d="M77.779,66.5H41.758c-0.333,0-0.604,0.333-0.604,0s0.27,0,0.604,0H77.23l1.656-18.232L39.16,42.51
			c-0.33-0.047-0.56-0.446-0.514-0.777c0.046-0.329,0.35-0.607,0.681-0.561l40.295,5.625c0.32,0.044,0.547,0.32,0.517,0.642
			l-1.76,18.744C78.351,66.492,78.09,66.5,77.779,66.5z"/>
		<path fill="#F89B60" d="M77.352,70.5H41.758c-0.333,0-0.604,0.334-0.604,0s0.27,0,0.604,0H77.352c0.334,0,0.604-0.334,0.604,0
			S77.685,70.5,77.352,70.5z"/>
		<path fill="#F89B60" d="M41.194,70.788c-0.308,0-0.571,0.021-0.6-0.292l-3-31.996h-6.09c-0.333,0-0.603-0.166-0.603-0.5
			c0-0.333,0.27-0.5,0.603-0.5h6.64c0.312,0,0.572-0.121,0.601,0.19l3.052,32.618c0.03,0.331-0.213,0.535-0.545,0.566
			C41.231,70.876,41.212,70.788,41.194,70.788z"/>
		<path fill="#F89B60" d="M77.131,75.896c-1.785,0-3.236-1.452-3.236-3.237c0-1.784,1.452-3.236,3.236-3.236
			c1.785,0,3.237,1.452,3.237,3.236C80.368,74.444,78.915,75.896,77.131,75.896z M77.131,70.63c-1.12,0-2.03,0.909-2.03,2.029
			c0,1.12,0.91,2.031,2.03,2.031s2.03-0.911,2.03-2.031C79.161,71.539,78.25,70.63,77.131,70.63z"/>
		<path fill="#F89B60" d="M41.948,75.896c-1.784,0-3.236-1.452-3.236-3.237c0-1.784,1.452-3.236,3.236-3.236
			c1.785,0,3.237,1.452,3.237,3.236C45.185,74.444,43.733,75.896,41.948,75.896z M41.948,70.63c-1.119,0-2.029,0.909-2.029,2.029
			c0,1.12,0.91,2.031,2.029,2.031c1.12,0,2.031-0.911,2.031-2.031C43.978,71.539,43.067,70.63,41.948,70.63z"/>
		<path fill="#F89B60" d="M79.105,52.735c-0.026,0-0.054-0.002-0.081-0.006l-39.714-5.374c-0.33-0.045-0.562-0.349-0.517-0.679
			c0.045-0.33,0.35-0.562,0.679-0.517l39.714,5.375c0.331,0.044,0.562,0.348,0.518,0.678C79.661,52.515,79.402,52.735,79.105,52.735
			z"/>
		<path fill="#F89B60" d="M78.689,57.224c-0.023,0-0.046-0.002-0.07-0.005l-38.828-4.488c-0.33-0.039-0.568-0.338-0.53-0.669
			c0.038-0.33,0.336-0.57,0.669-0.53l38.827,4.489c0.33,0.038,0.568,0.337,0.53,0.668C79.253,56.996,78.992,57.224,78.689,57.224z"
			/>
		<path fill="#F89B60" d="M77.79,61.833c-0.02,0-0.039-0.002-0.059-0.002l-37.453-3.693c-0.331-0.033-0.574-0.329-0.541-0.659
			c0.033-0.332,0.322-0.573,0.659-0.542l37.453,3.693c0.332,0.033,0.575,0.329,0.541,0.66C78.359,61.6,78.096,61.833,77.79,61.833z"
			/>
		<path fill="#F89B60" d="M76.845,66.455c-0.018,0-0.036-0.001-0.053-0.002l-35.763-3.13c-0.332-0.029-0.577-0.322-0.548-0.654
			c0.029-0.332,0.323-0.578,0.653-0.548l35.763,3.13c0.332,0.028,0.577,0.321,0.549,0.653
			C77.417,66.218,77.154,66.455,76.845,66.455z"/>
		<path fill="#F89B60" d="M72.207,66.389l1.951-19.691c0.032-0.332,0.339-0.57,0.66-0.541c0.332,0.032,0.574,0.327,0.541,0.659
			l-1.942,19.602"/>
		<path fill="#F89B60" d="M67.138,66.386l2.081-20.377c0.034-0.331,0.336-0.564,0.662-0.539c0.332,0.034,0.573,0.33,0.539,0.662
			l-2.071,20.287"/>
		<path fill="#F89B60" d="M62.07,66.385l2.221-21.063c0.035-0.331,0.334-0.576,0.663-0.537c0.332,0.035,0.572,0.332,0.536,0.663
			l-2.211,20.97"/>
		<path fill="#F89B60" d="M57.002,66.382l2.385-21.828c0.036-0.332,0.332-0.573,0.665-0.534c0.331,0.036,0.57,0.334,0.534,0.665
			l-2.374,21.733"/>
		<path fill="#F89B60" d="M51.735,66.379l2.575-22.451c0.038-0.331,0.332-0.573,0.668-0.53c0.331,0.038,0.568,0.337,0.53,0.668
			l-2.564,22.352"/>
		<path fill="#F89B60" d="M47.925,66.15l1.32-22.934c0.018-0.332,0.304-0.603,0.637-0.588c0.333,0.019,0.587,0.294,0.567,0.627
			l-1.437,23"/>
		<path fill="#F89B60" d="M44.581,66.5c-0.325,0-0.593,0.018-0.603-0.31L43.26,42.341c-0.01-0.333,0.252-0.544,0.585-0.553
			c0.329,0.009,0.612,0.286,0.621,0.62l0.718,23.729c0.01,0.334-0.252,0.363-0.585,0.363C44.594,66.5,44.588,66.5,44.581,66.5z"/>
	</g>
	<path fill="#FF9C5E" d="M56,101.085c-24.861,0-45.087-20.224-45.087-45.085c0-24.86,20.226-45.085,45.087-45.085
		c24.861,0,45.087,20.225,45.087,45.085C101.087,80.861,80.861,101.085,56,101.085z M56,12.121c-24.196,0-43.88,19.684-43.88,43.879
		c0,24.195,19.684,43.88,43.88,43.88c24.196,0,43.88-19.684,43.88-43.88C99.88,31.805,80.196,12.121,56,12.121z"/>
</g>
</svg>
