<?xml version="1.0" encoding="utf-8"?>
<!-- Generator: Adobe Illustrator 17.0.0, SVG Export Plug-In . SVG Version: 6.00 Build 0)  -->
<!DOCTYPE svg PUBLIC "-//W3C//DTD SVG 1.1//EN" "http://www.w3.org/Graphics/SVG/1.1/DTD/svg11.dtd">
<svg version="1.1" id="Layer_1" xmlns="http://www.w3.org/2000/svg" xmlns:xlink="http://www.w3.org/1999/xlink" x="0px" y="0px"
	 width="112px" height="112px" viewBox="0 0 112 112" enable-background="new 0 0 112 112" xml:space="preserve">
<g>
	<g>
		<path fill="#FF9C5E" d="M39.217,75.112c-0.598,0-1.396-0.42-1.708-0.898c-0.664-1.019-1.191-2.087-1.564-3.173
			c-0.163-0.473-0.323-0.948-0.482-1.424c-0.495-1.477-1.002-2.991-1.645-4.504l-0.035,0.162c-0.404,1.845-0.809,3.691-1.232,5.53
			c-0.056,0.238-0.103,0.502-0.152,0.773c-0.266,1.46-0.636,3.482-2.559,3.337c-0.618-0.051-1.098-0.28-1.424-0.681
			c-0.637-0.784-0.491-1.952-0.362-2.984c0.035-0.286,0.07-0.56,0.082-0.804c0.227-4.741,0.537-9.404,0.865-14.34l0.144-2.186
			c-0.353,0.098-0.806,0.216-1.388,0.366c-0.197,0.051-0.34,0.087-0.383,0.101c-0.899,0.267-1.948,0.57-3.004,0.771
			c-0.248,0.047-0.577,0.102-0.92,0.102c-0.659,0-1.152-0.204-1.466-0.606c-0.23-0.295-0.328-0.638-0.282-0.993
			c0.08-0.622,0.59-1.127,1.003-1.441c0.692-0.526,1.382-1.059,2.068-1.593c1.059-0.82,2.131-1.621,3.205-2.421
			c0.482-0.361,0.964-0.72,1.445-1.081c0.817-0.615,1.009-0.959,0.625-1.921c-1.22-3.044-0.005-4.732,1.229-5.61
			c1.88-1.341,4.263-1.215,6.041,0.32c1.83,1.58,2.155,3.505,0.993,5.884c-0.567,1.16,0.501,1.979,2.538,3.002l0.095,0.048
			c0.432,0.218,0.9,0.512,1.396,0.822c1.138,0.716,2.429,1.526,3.48,1.526c0.212,0,0.401-0.033,0.579-0.101
			c1.197-0.455,2.372-1.334,3.509-2.185c0.612-0.457,1.243-0.931,1.869-1.329c1.277-0.809,1.404-1.244,0.723-2.449
			c-0.723-1.28-0.909-2.482-0.552-3.575c0.402-1.23,1.462-2.244,3.155-3.011c0.512-0.233,1.067-0.352,1.647-0.352
			c1.934,0,3.696,1.27,4.287,3.088c0.315,0.967,0.273,2.199-0.109,3.138c-0.678,1.671,1.287,3.011,3.727,4.464
			c0.538,0.32,1.044,0.621,1.439,0.904c1.488,1.07,2.343,1.409,3.841,0.454c0.891-0.568,1.776-1.192,2.631-1.795
			c0.89-0.627,1.809-1.275,2.75-1.873c0.818-0.52,0.938-0.877,0.643-1.916c-0.74-2.595-0.04-4.662,1.92-5.672
			c0.713-0.367,1.521-0.56,2.337-0.56c1.33,0,2.575,0.509,3.417,1.398c1.744,1.838,1.88,4.052,0.385,6.234
			c-0.529,0.773-0.37,0.913-0.168,1.089c0.518,0.456,1.087,0.845,1.689,1.257c0.3,0.205,0.599,0.41,0.892,0.624l0.38,0.277
			c0.795,0.582,1.545,1.132,2.371,1.575c0.527,0.282,1.076,0.513,1.688,0.767c0.552,0.227,1.152,0.541,1.429,1.148
			c0.165,0.362,0.17,0.756,0.012,1.11c-0.162,0.368-0.485,0.652-0.888,0.78c-0.818,0.259-1.992,0.089-2.93-0.095l-0.377-0.073
			c-0.527-0.097-1.051-0.212-1.574-0.327c-0.432-0.095-0.864-0.19-1.298-0.274l-0.222-0.043c-0.638-0.125-1.114-0.234-1.343-0.208
			c-0.036,0.238,0.004,0.815,0.043,1.376c0.145,2.071,0.378,4.148,0.604,6.158c0.341,3.034,0.696,6.17,0.746,9.262
			c0.016,0.916,0.035,2.171-0.373,3.204c-0.279,0.705-0.9,1.142-1.621,1.142l0,0c-0.739,0-1.418-0.465-1.769-1.215
			c-0.516-1.106-0.95-2.381-1.324-3.899c-0.238-0.961-0.424-1.953-0.605-2.912c-0.173-0.916-0.35-1.853-0.571-2.767
			c-0.488,1.132-0.764,2.37-1.052,3.659c-0.459,2.053-0.934,4.177-2.344,5.943c-0.506,0.633-1.026,0.955-1.546,0.955
			c-0.365,0-0.701-0.157-0.971-0.454c-0.57-0.623-0.745-1.767-0.666-2.625c0.253-2.784,0.559-5.477,0.905-8.005
			c0.342-2.496,0.723-4.979,1.127-7.606c0.128-0.838,0.259-1.692,0.392-2.563c-4.966,1.487-8.857,1.351-12.631-0.342l0.216,1.85
			c0.234,1.981,0.449,3.82,0.652,5.661c0.35,3.191,0.759,6.973,1.137,10.844c0.05,0.506,0.055,1.257-0.205,1.953
			c-0.287,0.77-0.852,1.229-1.509,1.229c-0.489,0-0.951-0.259-1.299-0.73c-0.573-0.771-1.025-1.76-1.38-3.023
			c-0.534-1.897-1.018-3.838-1.484-5.714c-0.096-0.39-0.193-0.777-0.291-1.166c-0.085,0.33-0.171,0.658-0.258,0.988
			c-0.437,1.675-0.889,3.408-1.369,5.105c-0.32,1.13-0.65,2.299-1.235,3.357c-0.422,0.761-1.118,1.667-2.041,1.667
			c-0.095,0-0.191-0.01-0.285-0.03c-1.078-0.234-1.441-1.634-1.416-2.463c0.067-2.24,0.252-4.686,0.566-7.48
			c0.173-1.545,0.385-3.11,0.591-4.623c0.25-1.84,0.508-3.641,0.695-5.514c0.038-0.375,0.122-1.387,0.053-1.387
			c-0.01,0-0.022,0-0.034,0c-0.277,0-0.8,0.033-1.311,0.173c-2.299,0.63-4.432,0.883-6.52,0.883c-1.831,0-3.649-0.271-5.402-0.758
			c-0.546-0.152-1.095-0.305-1.409-0.305c-0.093,0-0.127,0.006-0.127,0.006c-0.083,0.173,0.053,1.259,0.098,1.617
			c0.288,2.313,0.658,4.659,1.016,6.929c0.27,1.717,0.551,3.491,0.795,5.244c0.241,1.744,0.397,3.635,0.475,5.782
			c0.024,0.682-0.436,1.663-1.088,1.955C39.518,75.084,39.374,75.112,39.217,75.112z M39.217,73.906v0.602l0.002-0.603
			C39.219,73.905,39.217,73.906,39.217,73.906z M33.613,62.626c0.227,0,0.437,0.127,0.54,0.333c1.061,2.118,1.769,4.23,2.454,6.273
			c0.158,0.473,0.316,0.944,0.478,1.416c0.337,0.978,0.833,1.984,1.434,2.908c0.078,0.12,0.453,0.325,0.661,0.348
			c0.138-0.119,0.356-0.538,0.346-0.789c-0.075-2.106-0.227-3.958-0.465-5.661c-0.241-1.741-0.52-3.51-0.79-5.222
			c-0.36-2.28-0.732-4.637-1.023-6.97c-0.154-1.235-0.221-2.083,0.228-2.592c0.232-0.262,0.568-0.396,0.999-0.396
			c0.434,0,0.985,0.129,1.731,0.335c1.648,0.458,3.358,0.691,5.08,0.691c1.978,0,4.007-0.293,6.201-0.894
			c0.756-0.207,1.241-0.32,1.63-0.32c0.395,0,0.705,0.123,0.924,0.365c0.432,0.477,0.379,1.243,0.259,2.452
			c-0.191,1.894-0.45,3.809-0.702,5.66c-0.205,1.506-0.416,3.063-0.588,4.595c-0.309,2.76-0.491,5.175-0.557,7.382
			c-0.016,0.521,0.236,1.197,0.464,1.246c0.246,0.009,0.635-0.355,1.016-1.041c0.517-0.936,0.829-2.037,1.13-3.102
			c0.476-1.686,0.927-3.412,1.362-5.081c0.183-0.695,0.364-1.391,0.548-2.086c0.07-0.262,0.306-0.447,0.578-0.448l0.6-0.006
			c0.264,0.012,0.522,0.186,0.591,0.455c0.192,0.759,0.382,1.519,0.57,2.278c0.466,1.868,0.946,3.8,1.475,5.68
			c0.311,1.103,0.711,1.988,1.188,2.63c0.133,0.18,0.259,0.243,0.331,0.243c0.106,0,0.264-0.137,0.379-0.445
			c0.14-0.375,0.187-0.877,0.135-1.413c-0.378-3.865-0.787-7.643-1.136-10.83c-0.202-1.837-0.419-3.674-0.651-5.652l-0.345-2.947
			c-0.026-0.223,0.073-0.441,0.259-0.567c0.185-0.127,0.425-0.141,0.623-0.036c2.178,1.153,4.411,1.713,6.828,1.713
			c2.066,0,4.227-0.398,6.798-1.251c0.199-0.066,0.419-0.024,0.579,0.111c0.161,0.135,0.239,0.344,0.209,0.551
			c-0.182,1.208-0.362,2.379-0.537,3.524c-0.403,2.623-0.783,5.099-1.123,7.587c-0.345,2.509-0.647,5.184-0.899,7.951
			c-0.069,0.746,0.127,1.452,0.356,1.702c0.031,0.034,0.065,0.059,0.08,0.059c0.002,0,0.209-0.006,0.603-0.5
			c1.236-1.549,1.66-3.446,2.109-5.453c0.407-1.82,0.827-3.702,1.903-5.338c0.128-0.194,0.355-0.295,0.585-0.266
			c0.23,0.032,0.422,0.193,0.493,0.413c0.453,1.416,0.734,2.902,1.006,4.339c0.177,0.942,0.361,1.917,0.59,2.847
			c0.355,1.44,0.763,2.643,1.246,3.676c0.152,0.326,0.405,0.52,0.676,0.52c0.221,0,0.404-0.138,0.499-0.38
			c0.32-0.809,0.302-1.88,0.289-2.74c-0.051-3.034-0.4-6.141-0.738-9.147c-0.228-2.022-0.463-4.113-0.607-6.168
			c-0.091-1.302-0.134-1.934,0.27-2.366c0.32-0.342,0.765-0.342,0.912-0.342c0.373,0,0.842,0.091,1.552,0.231l0.22,0.043
			c0.444,0.085,0.885,0.182,1.327,0.279c0.51,0.113,1.02,0.224,1.534,0.319l0.392,0.076c0.791,0.155,1.77,0.309,2.33,0.128
			c0.072-0.023,0.13-0.067,0.152-0.118c0.009-0.023,0.02-0.06-0.007-0.12c-0.118-0.256-0.591-0.452-0.792-0.535
			c-0.643-0.266-1.222-0.51-1.797-0.819c-0.902-0.483-1.721-1.084-2.515-1.665l-0.377-0.275c-0.284-0.207-0.573-0.405-0.863-0.604
			c-0.605-0.413-1.23-0.841-1.803-1.344c-1.166-1.022-0.312-2.268-0.032-2.679c1.173-1.712,1.083-3.301-0.265-4.722
			c-0.616-0.649-1.543-1.022-2.542-1.022c-0.624,0-1.241,0.147-1.784,0.427c-1.823,0.938-1.72,2.839-1.313,4.269
			c0.367,1.286,0.31,2.334-1.157,3.265c-0.916,0.581-1.823,1.22-2.701,1.84c-0.867,0.611-1.764,1.243-2.679,1.826
			c-0.812,0.52-1.524,0.761-2.238,0.761c-1.01,0-1.879-0.478-2.955-1.251c-0.353-0.253-0.838-0.542-1.352-0.849
			c-2.13-1.268-5.35-3.187-4.228-5.954c0.271-0.67,0.305-1.62,0.079-2.311c-0.423-1.306-1.745-2.254-3.139-2.254
			c-0.406,0-0.793,0.082-1.148,0.243c-1.372,0.623-2.215,1.392-2.506,2.286c-0.248,0.759-0.094,1.635,0.456,2.608
			c1.156,2.045,0.385,3.102-1.127,4.062c-0.585,0.373-1.173,0.812-1.794,1.276c-1.202,0.902-2.447,1.832-3.803,2.348
			c-0.312,0.118-0.651,0.178-1.006,0.179c-1.398,0-2.845-0.909-4.122-1.709c-0.471-0.296-0.915-0.575-1.297-0.767l-0.095-0.047
			c-1.39-0.698-4.282-2.152-3.08-4.611c0.925-1.892,0.717-3.22-0.697-4.44c-1.366-1.177-3.116-1.275-4.553-0.252
			c-1.299,0.926-1.565,2.294-0.809,4.18c0.656,1.638,0.066,2.517-1.02,3.334c-0.481,0.362-0.965,0.723-1.448,1.084
			c-1.068,0.796-2.135,1.592-3.187,2.408c-0.69,0.536-1.382,1.071-2.077,1.6c-0.348,0.265-0.521,0.51-0.538,0.636
			c-0.002,0.018-0.006,0.041,0.038,0.094c0.095,0.123,0.363,0.141,0.515,0.141c0.242,0,0.498-0.043,0.695-0.08
			c1-0.191,2.013-0.483,2.883-0.742c0.048-0.014,0.206-0.056,0.426-0.112c0.429-0.112,1.692-0.439,2.005-0.558
			c0.109-0.077,0.289-0.115,0.432-0.109c0.333,0.021,0.61,0.308,0.61,0.64c0,0.005,0,0.009,0,0.013l-0.252,3.08
			c-0.327,4.931-0.66,9.588-0.885,14.317c-0.014,0.271-0.063,0.577-0.102,0.896c-0.094,0.753-0.217,1.69,0.095,2.074
			c0.042,0.051,0.165,0.205,0.584,0.24c0.766,0.072,1.011-0.916,1.272-2.35c0.053-0.29,0.104-0.572,0.163-0.828
			c0.423-1.836,0.824-3.677,1.229-5.518l0.42-1.917c0.055-0.249,0.262-0.437,0.516-0.469C33.564,62.628,33.589,62.626,33.613,62.626
			z"/>
	</g>
</g>
<path fill="#FF9C5E" d="M56.474,100.974c-24.861,0-45.087-20.225-45.087-45.086c0-24.86,20.226-45.085,45.087-45.085
	c24.861,0,45.087,20.225,45.087,45.085C101.56,80.749,81.335,100.974,56.474,100.974z M56.474,12.009
	c-24.196,0-43.88,19.685-43.88,43.879c0,24.195,19.684,43.88,43.88,43.88c24.196,0,43.88-19.684,43.88-43.88
	C100.354,31.694,80.67,12.009,56.474,12.009z"/>
</svg>
