<?xml version="1.0" encoding="utf-8"?>
<!-- Generator: Adobe Illustrator 17.0.0, SVG Export Plug-In . SVG Version: 6.00 Build 0)  -->
<!DOCTYPE svg PUBLIC "-//W3C//DTD SVG 1.1//EN" "http://www.w3.org/Graphics/SVG/1.1/DTD/svg11.dtd">
<svg version="1.1" id="Layer_1" xmlns="http://www.w3.org/2000/svg" xmlns:xlink="http://www.w3.org/1999/xlink" x="0px" y="0px"
	 width="112px" height="112px" viewBox="0 0 112 112" enable-background="new 0 0 112 112" xml:space="preserve">
<path fill="#FF9C5E" d="M56,101.086c-24.861,0-45.086-20.225-45.086-45.086c0-24.86,20.225-45.086,45.086-45.086
	c24.862,0,45.087,20.226,45.087,45.086C101.086,80.861,80.861,101.086,56,101.086z M56,12.122c-24.196,0-43.88,19.684-43.88,43.878
	c0,24.195,19.684,43.88,43.88,43.88c24.197,0,43.881-19.684,43.881-43.88C99.881,31.805,80.197,12.122,56,12.122z"/>
<line fill="none" stroke="#FF9C5E" stroke-width="2" stroke-linecap="round" stroke-linejoin="round" stroke-miterlimit="10" x1="50.5" y1="56.5" x2="60.5" y2="56.5"/>
<g>
	<path fill="#FF9C5E" d="M46.777,47.997c-0.602,0-1.248-0.166-1.973-0.596c-3.834-2.278-6.759-0.131-6.882-0.038
		c-0.265,0.2-0.642,0.148-0.844-0.116c-0.201-0.263-0.152-0.641,0.112-0.842c0.148-0.114,3.677-2.745,8.23-0.04
		c1.329,0.788,2.16,0.369,3.537-0.328c1.255-0.635,2.797-1.42,5.209-1.392c1.328,0.017,4.998,1.384,5.411,1.538
		c0.312,0.118,0.47,0.466,0.352,0.778c-0.117,0.311-0.469,0.468-0.777,0.352c-1.07-0.402-4.055-1.449-5.003-1.462
		c-2.078-0.03-3.451,0.657-4.648,1.263C48.611,47.563,47.752,47.997,46.777,47.997z"/>
	<path fill="#FF9C5E" d="M89.393,75.5H74.141c-0.333,0-0.602-0.167-0.602-0.5s0.27-0.5,0.602-0.5h14.325
		c-3.264-7-9.148-18.119-12.256-18.119c-1.091,0-4.305,3.72-6.656,7.267c-0.118,0.178-0.316,0.225-0.535,0.214
		c-0.214-0.011-0.405-0.161-0.503-0.351C57.468,42.224,51.573,37.741,48.573,37.741c-2.545,0-7.39,3.414-16.013,18.669
		c-4.319,7.64-7.887,15.09-9.022,18.09h39.745c0.334,0,0.603,0.167,0.603,0.5s-0.27,0.5-0.603,0.5H22.606
		c-0.203,0-0.394-0.217-0.505-0.387c-0.112-0.171-0.13-0.443-0.048-0.63c0.68-1.547,16.745-37.933,26.519-37.933
		c4.766,0,11.677,8.566,20.546,25.495c1.649-2.395,5.123-7.079,7.091-7.079c5.079,0,12.865,17.472,13.736,19.464
		c0.082,0.187,0.064,0.515-0.048,0.685C89.788,75.286,89.598,75.5,89.393,75.5z"/>
	<path fill="#FF9C5E" d="M76.651,61.698c-3.166,0-4.893-0.423-5.437-1.33c-0.245-0.41-0.184-0.83-0.058-1.066
		c0.157-0.293,0.522-0.404,0.816-0.246c0.259,0.139,0.375,0.439,0.291,0.71c0.106,0.123,0.809,0.726,4.388,0.726
		c0.437,0,3.223-0.383,4.877-0.624c0.331-0.047,0.636,0.18,0.684,0.51c0.048,0.329-0.18,0.635-0.51,0.684
		C81.255,61.127,77.318,61.698,76.651,61.698z"/>
</g>
</svg>
