<?xml version="1.0" encoding="utf-8"?>
<!-- Generator: Adobe Illustrator 17.0.0, SVG Export Plug-In . SVG Version: 6.00 Build 0)  -->
<!DOCTYPE svg PUBLIC "-//W3C//DTD SVG 1.1//EN" "http://www.w3.org/Graphics/SVG/1.1/DTD/svg11.dtd">
<svg version="1.1" id="Layer_1" xmlns="http://www.w3.org/2000/svg" xmlns:xlink="http://www.w3.org/1999/xlink" x="0px" y="0px"
	 width="112px" height="112px" viewBox="0 0 112 112" enable-background="new 0 0 112 112" xml:space="preserve">
<path fill="#FF9C5E" d="M56,101.086c-24.861,0-45.087-20.225-45.087-45.087c0-24.859,20.226-45.084,45.087-45.084
	c24.862,0,45.087,20.225,45.087,45.084C101.087,80.861,80.862,101.086,56,101.086z M56,12.121c-24.196,0-43.88,19.685-43.88,43.878
	c0,24.196,19.684,43.88,43.88,43.88c24.196,0,43.88-19.684,43.88-43.88C99.88,31.805,80.196,12.121,56,12.121z"/>
<path fill="#FF9C5E" d="M62.932,82.161c-1.016,0-2.055-0.113-2.97-0.212c-0.351-0.037-0.686-0.074-0.998-0.102
	c-3.2-0.283-11.445-2.09-12.321-2.609c-2.46-1.459-4.182-3.864-5.848-6.192c-0.233-0.324-0.463-0.647-0.694-0.962
	c-1.13-1.55-2.23-3.153-3.295-4.704c-0.979-1.427-1.992-2.902-3.021-4.325l-1.671-2.313c-0.978-1.356-2.458-3.405-0.064-5.461
	c0.571-0.491,1.213-0.74,1.908-0.74c1.936,0,3.65,1.916,4.5,3.056c0.556,0.748,1.099,1.508,1.641,2.267
	c1.085,1.519,2.207,3.091,3.422,4.525c0.542,0.639,1.641,1.172,2.344,1.112c0.343-0.032,1.146-0.106,1.076-2.247
	c-0.129-3.798-0.321-9.406-0.496-14.501c-0.255-7.437-0.412-12.005-0.413-12.184c-0.012-2.1,1.227-3.579,3.084-3.681
	c1.94-0.099,3.309,1.228,3.465,3.336c0.162,2.206,0.3,4.414,0.438,6.622c0.182,2.889,0.37,5.876,0.609,8.808
	c0.016,0.195,0.023,0.422,0.033,0.662c0.02,0.583,0.068,1.948,0.426,1.958c0.366,0,0.498-1.291,0.563-1.914
	c0.03-0.286,0.059-0.557,0.096-0.786c0.676-4.065,1.306-8.209,1.917-12.216c0.311-2.038,0.621-4.077,0.938-6.113
	c0.333-2.132,1.533-3.405,3.209-3.405c0.205,0,0.416,0.02,0.63,0.058c1.954,0.352,2.946,2.055,2.59,4.445
	c-0.273,1.827-0.547,3.656-0.821,5.484c-0.755,5.03-1.535,10.232-2.259,15.354c-0.116,0.823,0,1.255,0.073,1.332
	c0.002-0.023,0.289-0.186,0.642-1.207c1.462-4.214,2.903-8.513,4.297-12.673l1.467-4.372c0.048-0.14,0.092-0.284,0.138-0.427
	c0.155-0.496,0.316-1.008,0.585-1.487c0.895-1.591,2.409-2.207,3.994-1.612c1.705,0.638,2.462,2.105,1.974,3.827
	c-0.248,0.88-1.523,4.81-2.873,8.971c-1.29,3.974-2.623,8.086-3.342,10.395c-0.174,0.561-0.162,1.071-0.077,1.176
	c0.098-0.029,0.488-0.409,0.74-0.907c0.92-1.816,2.44-4.952,3.78-7.717c1.541-3.178,2.495-5.143,2.709-5.505
	c0.921-1.56,2.049-1.888,2.833-1.888c0.5,0,1.02,0.133,1.545,0.395c1.742,0.868,2.269,2.519,1.408,4.419
	c-1.057,2.33-2.17,4.681-3.247,6.955c-0.451,0.951-0.901,1.902-1.348,2.854c-0.748,1.592-1.528,4.404-2.353,7.382
	c-1.89,6.82-4.031,14.551-7.67,16.426C65.382,81.95,64.305,82.161,62.932,82.161z M33.957,55.747c-0.404,0-0.771,0.146-1.122,0.448
	c-1.328,1.142-1.101,1.961,0.256,3.841l1.671,2.312c1.037,1.435,2.055,2.916,3.038,4.35c1.059,1.544,2.155,3.14,3.275,4.674
	c0.232,0.32,0.466,0.644,0.7,0.972c1.594,2.225,3.241,4.527,5.483,5.856c0.706,0.379,8.507,2.153,11.811,2.445
	c0.321,0.028,0.664,0.066,1.023,0.105c0.886,0.097,1.889,0.205,2.841,0.205c1.176,0,2.071-0.166,2.737-0.509
	c3.17-1.634,5.327-9.42,7.06-15.676c0.875-3.16,1.632-5.889,2.423-7.574c0.448-0.953,0.899-1.905,1.351-2.857
	c1.074-2.268,2.184-4.614,3.238-6.937c0.594-1.309,0.309-2.264-0.847-2.841c-1.137-0.566-2.062-0.224-2.8,1.027
	c-0.199,0.337-1.396,2.804-2.663,5.416c-1.342,2.772-2.866,5.912-3.789,7.736c-0.131,0.259-0.836,1.552-1.855,1.552
	c-0.152,0-0.301-0.029-0.441-0.087c-0.924-0.382-0.914-1.612-0.596-2.636c0.723-2.318,2.058-6.431,3.348-10.409
	c1.345-4.15,2.617-8.069,2.859-8.927c0.404-1.425-0.449-2.075-1.234-2.37c-0.268-0.1-0.527-0.151-0.77-0.151
	c-0.878,0-1.437,0.666-1.75,1.224c-0.208,0.369-0.343,0.8-0.487,1.257c-0.048,0.15-0.094,0.301-0.144,0.449l-1.467,4.371
	c-1.395,4.162-2.837,8.465-4.302,12.683c-0.171,0.496-0.694,2.011-1.804,2.011c-0.089,0-0.178-0.011-0.266-0.03
	c-0.491-0.113-1.269-0.61-0.98-2.669c0.723-5.127,1.504-10.331,2.26-15.364c0.274-1.828,0.548-3.655,0.82-5.482
	c0.122-0.817,0.209-2.752-1.609-3.079c-0.143-0.026-0.284-0.039-0.416-0.039c-1.43,0-1.877,1.494-2.016,2.384
	c-0.317,2.036-0.627,4.073-0.938,6.109c-0.61,4.012-1.243,8.16-1.92,12.233c-0.034,0.208-0.059,0.453-0.085,0.713
	c-0.123,1.192-0.309,2.995-1.754,2.995c-1.534-0.044-1.598-1.896-1.641-3.122c-0.008-0.221-0.015-0.428-0.03-0.607
	c-0.24-2.942-0.428-5.936-0.609-8.83c-0.138-2.204-0.276-4.408-0.437-6.609c-0.109-1.469-0.914-2.287-2.196-2.219
	c-1.207,0.066-1.952,1.013-1.943,2.468c0.003,0.212,0.202,6.011,0.413,12.151c0.176,5.095,0.368,10.704,0.495,14.502
	c0.09,2.71-1.13,3.392-2.17,3.488c-1.068,0.104-2.575-0.589-3.375-1.533c-1.248-1.473-2.385-3.065-3.484-4.604
	c-0.538-0.753-1.076-1.506-1.628-2.247C36.291,56.708,34.971,55.747,33.957,55.747z"/>
</svg>
