<?xml version="1.0" encoding="utf-8"?>
<!-- Generator: Adobe Illustrator 17.0.0, SVG Export Plug-In . SVG Version: 6.00 Build 0)  -->
<!DOCTYPE svg PUBLIC "-//W3C//DTD SVG 1.1//EN" "http://www.w3.org/Graphics/SVG/1.1/DTD/svg11.dtd">
<svg version="1.1" id="Layer_1" xmlns="http://www.w3.org/2000/svg" xmlns:xlink="http://www.w3.org/1999/xlink" x="0px" y="0px"
	 width="112px" height="112px" viewBox="0 0 112 112" enable-background="new 0 0 112 112" xml:space="preserve">
<path fill="#FF9C5E" d="M55.999,101.086c-24.86,0-45.086-20.225-45.086-45.087c0-24.859,20.226-45.085,45.086-45.085
	c24.862,0,45.087,20.225,45.087,45.085C101.087,80.86,80.861,101.086,55.999,101.086z M55.999,12.121
	c-24.195,0-43.88,19.684-43.88,43.878c0,24.196,19.684,43.88,43.88,43.88c24.196,0,43.881-19.684,43.881-43.88
	C99.88,31.805,80.195,12.121,55.999,12.121z"/>
<path fill="#FF9C5E" d="M73.147,82.061c-6.487,0-13.368-1.762-13.819-5.036l-3.291-4.446l-3.396,4.627
	c-0.674,3.159-7.421,4.855-13.788,4.855c-6.709,0-13.842-1.885-13.842-5.38c0-1.112,0.724-2.062,1.927-2.84l18.921-15.016
	L26.807,33.08l2.736-3.124l26.424,20.848l26.397-20.951l2.748,3.112l-18.98,25.859l18.659,14.721l-0.07,0.089
	c1.406,0.814,2.267,1.834,2.267,3.048C86.989,80.175,79.857,82.061,73.147,82.061z M73.147,72.509
	c-7.447,0-12.636,2.199-12.636,4.172c0,1.973,5.189,4.173,12.636,4.173c7.446,0,12.636-2.2,12.636-4.173
	C85.782,74.708,80.593,72.509,73.147,72.509z M26.918,75.394c-0.456,0.423-0.699,0.861-0.699,1.288
	c0,1.973,5.189,4.173,12.635,4.173c7.447,0,12.636-2.2,12.636-4.173c0-1.973-5.189-4.172-12.636-4.172
	c-5.254,0-9.384,1.094-11.361,2.432l-0.573,0.455L26.918,75.394z M38.854,71.302c5.905,0,12.138,1.46,13.548,4.191l2.884-3.93
	l-8.708-11.768l-15.675,12.44C33.276,71.619,36.1,71.302,38.854,71.302z M56.785,71.56l2.855,3.857
	c1.485-2.683,7.657-4.116,13.507-4.116c2.804,0,5.682,0.329,8.081,0.967l-15.81-12.472L56.785,71.56z M47.523,59.045l8.51,11.5
	l8.437-11.496l-8.502-6.707L47.523,59.045z M56.94,51.571l8.244,6.505l18.379-25.041l-1.346-1.525L56.94,51.571z M28.355,33.144
	l18.45,24.931l8.19-6.5l-25.3-19.96L28.355,33.144z"/>
</svg>
