<?xml version="1.0" encoding="utf-8"?>
<!-- Generator: Adobe Illustrator 17.0.0, SVG Export Plug-In . SVG Version: 6.00 Build 0)  -->
<!DOCTYPE svg PUBLIC "-//W3C//DTD SVG 1.1//EN" "http://www.w3.org/Graphics/SVG/1.1/DTD/svg11.dtd">
<svg version="1.1" id="Layer_1" xmlns="http://www.w3.org/2000/svg" xmlns:xlink="http://www.w3.org/1999/xlink" x="0px" y="0px"
	 width="112px" height="112px" viewBox="0 0 112 112" enable-background="new 0 0 112 112" xml:space="preserve">
<path fill="#FF9C5E" d="M57.058,80.072c-0.032,0-0.064-0.002-0.095-0.007c-0.2,0.005-0.402,0.007-0.603,0.007
	c-3.722,0-7.252-0.844-10.404-2.352c-0.06-0.019-0.118-0.045-0.169-0.081c-5.706-2.782-10.162-7.74-12.281-13.787
	c-0.02-0.04-0.034-0.082-0.045-0.126c-0.849-2.466-1.31-5.113-1.31-7.863c0-11.934,8.683-21.88,20.062-23.853
	c0.013-0.002,0.026-0.004,0.038-0.006c1.335-0.229,2.709-0.349,4.109-0.349c4.816,0,9.307,1.413,13.083,3.848
	c0.062,0.027,0.119,0.064,0.169,0.11c3.367,2.212,6.152,5.238,8.072,8.798c0.036,0.048,0.065,0.102,0.084,0.157
	c1.788,3.373,2.8,7.219,2.8,11.295c0,2.073-0.262,4.087-0.755,6.008c-0.006,0.039-0.015,0.077-0.03,0.114
	c-2.651,10.138-11.726,17.706-22.595,18.073C57.145,80.067,57.101,80.072,57.058,80.072z M46.647,76.713
	c3.059,1.43,6.504,2.213,10.086,2.148l1.577-2.437l-5.335-4.235l-7.063,1.461L46.647,76.713z M59.519,76.777l-1.303,2.014
	c5.402-0.433,10.283-2.741,13.992-6.271l-1.911-0.267L59.519,76.777z M35.091,64.626c1.999,4.835,5.602,8.846,10.141,11.366
	l-0.604-2.518l-7.019-7.907L35.091,64.626z M53.794,71.299l5.415,4.299l10.416-4.373l0.248-7.286l-5.521-3.096l-9.263,4.094
	L53.794,71.299z M38.652,64.923l6.748,7.601l7.218-1.492l1.291-6.341l-6.835-7.617l-5.905,0.975L38.652,64.923z M70.837,71.11
	l2.25,0.313c0.055,0.009,0.108,0.023,0.156,0.044c2.482-2.684,4.334-5.958,5.318-9.584l-1.468-2.194l-6.012,4.224L70.837,71.11z
	 M34.533,63.129l3.072,1.148l2.444-6.678l-3.805-6.194l-2.699,1.519c-0.123,0.964-0.187,1.945-0.187,2.941
	C33.357,58.402,33.77,60.844,34.533,63.129z M48.155,56.473l6.562,7.311l9.025-3.988l-0.993-9.784l-9.63-2.052L48.155,56.473z
	 M64.954,59.798l5.499,3.083l6.157-4.326l-1.196-10.342l-6.894-2.74l-4.586,4.278L64.954,59.798z M77.833,58.627l1.104,1.647
	c0.279-1.428,0.424-2.902,0.424-4.411c0-3.432-0.756-6.692-2.11-9.62l-0.662,1.627L77.833,58.627z M37.094,50.564l3.911,6.328
	l6.119-1.03l5.011-8.524l-2.77-5.838h-7.925L37.094,50.564z M40.5,39.259c-4,3.209-5.753,7.416-6.686,12.14l2.102-1.178l4.584-9.617
	V39.259z M53.235,46.752l9.887,2.107l4.572-4.266l-2.238-6.801L55.183,35.48l-4.634,5.544L53.235,46.752z M68.873,44.314l6.765,2.69
	l0.891-2.19c-1.788-3.251-4.34-6.027-7.412-8.083l-2.441,0.91L68.873,44.314z M41.5,40.5h8.006c0.066,0,0.13-0.172,0.189-0.151
	l4.413-5.372l-1.945-1.685c-3.95,0.731-7.628,2.451-10.596,4.924c0.01,0.044-0.067,0.066-0.067,0.111V40.5z M55.233,34.255
	l10.645,2.396l1.943-0.724c-3.376-1.949-7.291-3.064-11.462-3.064c-0.882,0-1.75,0.049-2.606,0.146L55.233,34.255z"/>
<path fill="#FF9C5E" d="M56,101.086c-24.862,0-45.088-20.225-45.088-45.086c0-24.86,20.226-45.086,45.088-45.086
	c24.861,0,45.087,20.226,45.087,45.086C101.087,80.861,80.861,101.086,56,101.086z M56,12.122c-24.196,0-43.88,19.684-43.88,43.878
	c0,24.195,19.684,43.88,43.88,43.88S99.88,80.195,99.88,56C99.88,31.805,80.196,12.122,56,12.122z"/>
</svg>
