<?xml version="1.0" encoding="utf-8"?>
<!-- Generator: Adobe Illustrator 17.0.0, SVG Export Plug-In . SVG Version: 6.00 Build 0)  -->
<!DOCTYPE svg PUBLIC "-//W3C//DTD SVG 1.1//EN" "http://www.w3.org/Graphics/SVG/1.1/DTD/svg11.dtd">
<svg version="1.1" id="Layer_1" xmlns="http://www.w3.org/2000/svg" xmlns:xlink="http://www.w3.org/1999/xlink" x="0px" y="0px"
	 width="112px" height="112px" viewBox="0 0 112 112" enable-background="new 0 0 112 112" xml:space="preserve">
<g>
	<path fill="#FF9C5E" d="M56,101.086c-24.861,0-45.087-20.225-45.087-45.086c0-24.86,20.226-45.085,45.087-45.085
		c24.861,0,45.087,20.225,45.087,45.085C101.087,80.861,80.861,101.086,56,101.086z M56,12.121c-24.196,0-43.88,19.684-43.88,43.879
		c0,24.195,19.685,43.88,43.88,43.88c24.196,0,43.88-19.684,43.88-43.88C99.88,31.805,80.196,12.121,56,12.121z"/>
	<path fill="#FF9C5E" d="M44.969,82.347c-0.123,0-0.248-0.037-0.355-0.116c0,0,0,0-0.001,0c0,0,0-0.001-0.001-0.001
		c-0.004-0.003-0.008-0.006-0.013-0.009l-7.836-6.027c-0.011-0.008-0.02-0.016-0.03-0.025c-0.066-0.056-0.128-0.123-0.163-0.197
		C36.535,75.9,36.5,75.819,36.5,75.734c0-0.012,0-0.026,0-0.041l0.615-36.185c0.002-0.138,0.056-0.276,0.152-0.387l0,0
		c0.002-0.001,0.004-0.303,0.005-0.305l0,0c0.005-0.004-0.07-0.317-0.064-0.317H37.5v0.6v-0.014c0-0.077-0.132-0.586-0.039-0.586
		c0,0,0.041,0,0.042,0c0,0-0.048,0.217-0.047,0.217c0.03-0.01,0.044,0.187,0.044,0.187V38.5c0,0,0.139,0,0.14,0h0h0
		c0.001,0,0.001,0,0.001,0l0,0c0.014,0,0.028,0,0.041,0l30.16-2.207c0.16-0.016,0.325,0.063,0.453,0.179l0,0
		c0,0,0,0.028,0.001,0.028l0,0c0,0,0.001,0,0.001,0s-0.003,0.077,0.001,0.078l6.636,6.071c0.129,0.118,0.195,0.295,0.197,0.457
		l0.604,36.204c0.005,0.319-0.238,0.592-0.555,0.617L45.02,82.342C45.003,82.344,44.986,82.347,44.969,82.347z M44.979,46.103
		l0.583,34.988l28.959-2.316l-0.583-34.988l-6.097,0.488c-0.004,0-0.009,0.001-0.014,0.002L44.979,46.103z M37.735,75.418
		l6.611,5.085l-0.578-34.685l-5.457-4.96L37.735,75.418z M39.166,40.005l5.412,4.92l22.612-1.809l0.089-5.361L39.166,40.005z
		 M68.475,38.445l-0.076,4.576l4.695-0.377L68.475,38.445z"/>
	<path fill="#FF9C5E" d="M51,45.547c-0.333,0-0.5-0.27-0.5-0.603v-3.921c0-4.316,3.983-6.523,7.095-6.523h0.086
		c3.636,0,5.819,1.939,5.819,5.575v3.662c0,0.334-0.166,0.604-0.5,0.604s-0.5-0.27-0.5-0.604v-3.662c0-2.97-1.849-5.575-4.819-5.575
		h-0.086c-3.034,0-6.095,3.594-6.095,6.523v3.921C51.5,45.278,51.334,45.547,51,45.547z"/>
	<path fill="#FF9C5E" d="M45.5,39.514c-0.334,0-1-0.27-1-0.603v-3.318c0-4.316,4.554-7.093,7.666-7.093h0.086
		c3.636,0,6.248,2.51,6.248,6.146v3.059c0,0.334-0.166,0.604-0.5,0.604c-0.333,0-0.5-0.27-0.5-0.604v-3.059
		c0-2.97-2.279-5.146-5.248-5.146h-0.086c-3.034,0-5.666,3.164-5.666,6.093v3.318C46.5,39.245,45.834,39.514,45.5,39.514z"/>
	<path fill="#FF9C5E" d="M55.35,70.292c-0.115,0-0.23-0.033-0.33-0.098c-0.193-0.126-0.297-0.35-0.27-0.577l0.7-5.794l-4.375-3.859
		c-0.172-0.152-0.243-0.389-0.182-0.611c0.06-0.221,0.24-0.39,0.466-0.434l5.725-1.124l2.32-5.355
		c0.091-0.21,0.295-0.352,0.524-0.362c0.227-0.009,0.445,0.109,0.557,0.309l2.839,5.098l5.809,0.552
		c0.229,0.022,0.425,0.171,0.506,0.385c0.082,0.215,0.035,0.457-0.122,0.626l-3.971,4.275l1.271,5.695
		c0.05,0.224-0.032,0.457-0.211,0.602c-0.178,0.145-0.423,0.174-0.632,0.078l-5.294-2.456l-5.023,2.968
		C55.561,70.264,55.456,70.292,55.35,70.292z M52.79,59.867l3.697,3.261c0.148,0.132,0.223,0.328,0.199,0.525l-0.591,4.894
		l4.245-2.508c0.171-0.101,0.38-0.111,0.561-0.027l4.473,2.074l-1.074-4.813c-0.044-0.194,0.011-0.396,0.146-0.542l3.355-3.612
		l-4.908-0.466c-0.197-0.019-0.373-0.134-0.47-0.307l-2.398-4.308l-1.96,4.524c-0.079,0.183-0.243,0.314-0.438,0.353L52.79,59.867z"
		/>
</g>
</svg>
