<?xml version="1.0" encoding="utf-8"?>
<!-- Generator: Adobe Illustrator 17.0.0, SVG Export Plug-In . SVG Version: 6.00 Build 0)  -->
<!DOCTYPE svg PUBLIC "-//W3C//DTD SVG 1.1//EN" "http://www.w3.org/Graphics/SVG/1.1/DTD/svg11.dtd">
<svg version="1.1" id="Layer_1" xmlns="http://www.w3.org/2000/svg" xmlns:xlink="http://www.w3.org/1999/xlink" x="0px" y="0px"
	 width="112px" height="112px" viewBox="0 0 112 112" enable-background="new 0 0 112 112" xml:space="preserve">
<path fill="#FF9C5E" d="M56,101.086c-24.861,0-45.087-20.226-45.087-45.087c0-24.86,20.225-45.084,45.087-45.084
	c24.861,0,45.087,20.224,45.087,45.084C101.087,80.86,80.861,101.086,56,101.086z M56,12.12c-24.196,0-43.88,19.685-43.88,43.879
	c0,24.195,19.684,43.88,43.88,43.88c24.196,0,43.88-19.684,43.88-43.88C99.88,31.805,80.196,12.12,56,12.12z"/>
<g>
	<path fill="#FF9C5E" d="M80.624,76.946c-0.119,0-0.239,0.073-0.342,0.001c-0.126-0.076-3.669-1.446-24.171-1.446
		c-0.007,0-0.02,0-0.02,0s-0.014,0-0.02,0c-20.507,0-24.045,1.371-24.186,1.458c-0.22,0.133-0.514,0.068-0.712-0.096l-1.733-1.689
		c-0.146-0.12,0.059-0.321,0.059-0.496V38.126c0-0.225-0.153-0.431,0.046-0.535c0.19-0.098,4.617-2.422,13.411-2.422
		c7.243,0,12.024,1.811,13.19,2.295c1.104-0.504,5.531-2.295,13.25-2.295c8.182,0,12.923,2.31,13.137,2.409
		c0.214,0.098-0.035,0.312-0.035,0.548v36.551c0,0.175,0.296,0.349,0.15,0.47l-1.827,1.661
		C80.713,76.899,80.761,76.946,80.624,76.946z M30.787,74.923l0.863,0.713c1.226-0.49,5.457-1.654,18.205-1.646
		c-1.957-0.262-4.332-0.46-7.036-0.46C36.633,73.529,32.564,74.426,30.787,74.923z M62.477,74.5c12.606,0,16.834,0.903,18.055,1.391
		l0.838-0.821c-1.892-0.494-6.184-1.221-12.007-1.221c-2.909,0-5.35,0.652-7.305,0.652C62.199,74.5,62.339,74.5,62.477,74.5z
		 M69,72.322c6.398,0,10.5,1.056,12.5,1.545v-35.34c0-0.171-1-0.474-3-0.798v16.895c0,0.234,0.423,0.448,0.21,0.547
		c-0.214,0.099-0.185,0.064-0.364-0.088l-3.995-3.501l-4.064,3.501c-0.18,0.152-0.328,0.187-0.541,0.088
		c-0.212-0.099-0.246-0.313-0.246-0.547V36.375c-8,0-12,1.627-13,2.137v35.335C57.5,73.343,62.258,72.322,69,72.322z M42,72.322
		c6.398,0,11.5,1.056,12.5,1.545v-35.34c-1-0.506-5.782-2.153-12.5-2.153c-7.207,0-11.5,1.627-12.5,2.137v35.335
		C31.5,73.343,35.258,72.322,42,72.322z M74.491,50.191c0.139,0-0.178,0.047-0.065,0.142l3.075,2.991V37.416
		c0-0.166-1.539-0.328-2.385-0.473C73.566,36.68,73.5,36.461,69.5,36.4v16.924l4.066-2.991
		C73.679,50.238,74.352,50.191,74.491,50.191z"/>
	<g>
		<path fill="#FF9C5E" d="M36.183,46.5c-0.33,0-0.6-0.394-0.603-0.726c-0.003-0.333,0.264-0.372,0.597-0.375L50.052,45.5
			c0.002,0,0.004,0,0.006,0c0.33,0,0.6-0.03,0.603,0.301c0.003,0.334-0.264,0.585-0.597,0.588L36.189,46.5
			C36.186,46.5,36.184,46.5,36.183,46.5z"/>
		<path fill="#FF9C5E" d="M36.183,50.5c-0.33,0-0.6-0.283-0.603-0.614c-0.003-0.334,0.264,0.071,0.597,0.068L50.052,50.5
			c0.002,0,0.004,0,0.006,0c0.33,0,0.6-0.419,0.603-0.088c0.003,0.334-0.264,0.28-0.597,0.283L36.189,50.5
			C36.186,50.5,36.184,50.5,36.183,50.5z"/>
		<path fill="#FF9C5E" d="M36.183,54.5c-0.33,0-0.6-0.172-0.603-0.504c-0.003-0.332,0.264,0.016,0.597,0.013L50.052,54.5
			c0.002,0,0.004,0,0.006,0c0.33,0,0.6-0.307,0.603,0.024c0.003,0.333-0.264,0.224-0.597,0.227L36.189,54.5
			C36.186,54.5,36.184,54.5,36.183,54.5z"/>
		<path fill="#FF9C5E" d="M36.183,58.5c-0.33,0-0.6-0.06-0.603-0.392c-0.003-0.333,0.264-0.04,0.597-0.043L50.052,58.5
			c0.002,0,0.004,0,0.006,0c0.33,0,0.6-0.196,0.603,0.135c0.003,0.333-0.264,0.168-0.597,0.171L36.189,58.5
			C36.186,58.5,36.184,58.5,36.183,58.5z"/>
		<path fill="#FF9C5E" d="M36.183,63.5c-0.33,0-0.6-0.447-0.603-0.78c-0.003-0.333,0.264-0.346,0.597-0.348L50.052,62.5
			c0.002,0,0.004,0,0.006,0c0.33,0,0.6-0.085,0.603,0.246c0.003,0.334-0.264,0.614-0.597,0.616L36.189,63.5
			C36.186,63.5,36.184,63.5,36.183,63.5z"/>
	</g>
</g>
</svg>
