<?xml version="1.0" encoding="utf-8"?>
<!-- Generator: Adobe Illustrator 17.0.0, SVG Export Plug-In . SVG Version: 6.00 Build 0)  -->
<!DOCTYPE svg PUBLIC "-//W3C//DTD SVG 1.1//EN" "http://www.w3.org/Graphics/SVG/1.1/DTD/svg11.dtd">
<svg version="1.1" id="Layer_1" xmlns="http://www.w3.org/2000/svg" xmlns:xlink="http://www.w3.org/1999/xlink" x="0px" y="0px"
	 width="112px" height="112px" viewBox="0 0 112 112" enable-background="new 0 0 112 112" xml:space="preserve">
<g>
	<path fill="#F89B60" d="M56,101.086c-24.861,0-45.087-20.225-45.087-45.086c0-24.861,20.226-45.086,45.087-45.086
		c24.861,0,45.087,20.225,45.087,45.086C101.087,80.86,80.861,101.086,56,101.086z M56,12.121c-24.196,0-43.88,19.684-43.88,43.879
		c0,24.195,19.684,43.879,43.88,43.879c24.196,0,43.88-19.684,43.88-43.879C99.88,31.805,80.196,12.121,56,12.121z"/>
	<g>
		<path fill="#F89B60" d="M29.35,76.076c-1.634,0-2.963-1.329-2.963-2.963V55.411c0-0.036,0.001-0.073,0.002-0.109
			c-2.166-1.107-3.542-3.333-3.542-5.792v-11.8c0-0.984,0.8-1.784,1.784-1.784c0.984,0,1.784,0.8,1.784,1.784v11.8
			c0,0.318,0.258,0.578,0.575,0.578c0.318,0,0.577-0.26,0.577-0.578v-11.8c0-0.984,0.8-1.784,1.783-1.784
			c0.984,0,1.785,0.8,1.785,1.784v11.8c0,0.318,0.259,0.578,0.576,0.578c0.318,0,0.577-0.26,0.577-0.578v-11.8
			c0-0.984,0.8-1.784,1.783-1.784c0.984,0,1.784,0.8,1.784,1.784v11.8c0,2.459-1.377,4.687-3.543,5.793
			c0.002,0.037,0.002,0.072,0.002,0.108v17.702C32.315,74.746,30.985,76.076,29.35,76.076z M24.631,37.132
			c-0.318,0-0.577,0.259-0.577,0.577v11.8c0,2.128,1.264,4.041,3.222,4.875l0.452,0.192l-0.097,0.482
			c-0.024,0.12-0.036,0.238-0.036,0.352v17.702c0,0.968,0.788,1.757,1.757,1.757c0.969,0,1.758-0.789,1.758-1.757V55.411
			c0-0.118-0.012-0.238-0.035-0.356l-0.093-0.479l0.448-0.191c1.957-0.834,3.22-2.749,3.22-4.875v-11.8
			c0-0.318-0.259-0.577-0.577-0.577c-0.318,0-0.577,0.259-0.577,0.577v11.8c0,0.984-0.8,1.785-1.784,1.785
			c-0.983,0-1.783-0.801-1.783-1.785v-11.8c0-0.318-0.26-0.577-0.579-0.577c-0.318,0-0.576,0.259-0.576,0.577v11.8
			c0,0.984-0.8,1.785-1.784,1.785c-0.982,0-1.781-0.801-1.781-1.785v-11.8C25.209,37.392,24.949,37.132,24.631,37.132z"/>
		<path fill="#F89B60" d="M45.813,75.835c-1.523,0-2.763-1.175-2.763-2.618V58.536c-1.309-0.602-2.161-1.859-2.161-3.246
			l0.002-11.792c-0.023-1.996,0.696-3.874,2.036-5.307c1.311-1.402,3.073-2.206,4.961-2.265l0.189-0.006l0.477,0.309l0.024,0.396
			v36.593C48.578,74.66,47.337,75.835,45.813,75.835z M42.096,43.865v11.425c0,1.007,0.702,1.918,1.747,2.264l0.414,0.137v15.526
			c0,0.779,0.698,1.412,1.556,1.412c0.859,0,1.558-0.633,1.558-1.412V37.175c-1.354,0.172-2.602,0.813-3.562,1.84
			c-1.164,1.244-1.77,2.891-1.707,4.637l0.007,0.195L42.096,43.865z"/>
	</g>
	<path fill="#F89B60" d="M72.933,71.082c-8.732,0-15.836-7.104-15.836-15.836c0-8.732,7.104-15.836,15.836-15.836
		c8.732,0,15.836,7.104,15.836,15.836C88.769,63.978,81.665,71.082,72.933,71.082z M72.933,40.617
		c-8.066,0-14.63,6.563-14.63,14.629c0,8.067,6.563,14.63,14.63,14.63s14.629-6.563,14.629-14.63
		C87.562,47.18,80.999,40.617,72.933,40.617z"/>
	<path fill="#F89B60" d="M67.928,60.652c-0.194,0-0.385-0.093-0.501-0.266c-0.186-0.276,0.054-0.652,0.329-0.837L73,56.131v-10.99
		c0-0.334,0.166-0.603,0.5-0.603s0.5,0.27,0.5,0.603v11.311c0,0.2-0.164,0.388-0.329,0.5l-5.374,3.597
		C68.192,60.619,68.044,60.652,67.928,60.652z"/>
</g>
<g>
</g>
<g>
</g>
<g>
</g>
<g>
</g>
<g>
</g>
<g>
</g>
</svg>
